<svg width="133" height="31" viewBox="0 0 133 31" fill="none" xmlns="http://www.w3.org/2000/svg">
<g clip-path="url(#clip0_44_381)">
<path d="M19.9589 13.175L14.0081 12.3102L11.3479 6.9172C11.2753 6.76954 11.1557 6.65001 11.0081 6.57735C10.6378 6.39454 10.1878 6.54688 10.0026 6.9172L7.34246 12.3102L1.39168 13.175C1.22762 13.1984 1.07762 13.2758 0.962776 13.393C0.823936 13.5357 0.747429 13.7277 0.750066 13.9267C0.752703 14.1258 0.834268 14.3157 0.976838 14.4547L5.28231 18.6524L4.26512 24.5797C4.24127 24.7176 4.25652 24.8594 4.30916 24.989C4.3618 25.1187 4.44972 25.231 4.56294 25.3132C4.67616 25.3955 4.81015 25.4443 4.94973 25.4543C5.0893 25.4642 5.22888 25.4349 5.35262 25.3695L10.6753 22.5711L15.9979 25.3695C16.1432 25.4469 16.312 25.4727 16.4737 25.4445C16.8815 25.3742 17.1557 24.9875 17.0854 24.5797L16.0682 18.6524L20.3737 14.4547C20.4909 14.3399 20.5682 14.1899 20.5917 14.0258C20.655 13.6156 20.369 13.2359 19.9589 13.175Z" fill="#FDC82A"/>
<path d="M47.9589 13.175L42.0081 12.3102L39.3479 6.9172C39.2753 6.76954 39.1557 6.65001 39.0081 6.57735C38.6378 6.39454 38.1878 6.54688 38.0026 6.9172L35.3425 12.3102L29.3917 13.175C29.2276 13.1984 29.0776 13.2758 28.9628 13.393C28.8239 13.5357 28.7474 13.7277 28.7501 13.9267C28.7527 14.1258 28.8343 14.3157 28.9768 14.4547L33.2823 18.6524L32.2651 24.5797C32.2413 24.7176 32.2565 24.8594 32.3092 24.989C32.3618 25.1187 32.4497 25.231 32.5629 25.3132C32.6762 25.3955 32.8102 25.4443 32.9497 25.4543C33.0893 25.4642 33.2289 25.4349 33.3526 25.3695L38.6753 22.5711L43.9979 25.3695C44.1432 25.4469 44.312 25.4727 44.4737 25.4445C44.8815 25.3742 45.1557 24.9875 45.0854 24.5797L44.0682 18.6524L48.3737 14.4547C48.4909 14.3399 48.5682 14.1899 48.5917 14.0258C48.655 13.6156 48.369 13.2359 47.9589 13.175Z" fill="#FDC82A"/>
<path d="M75.9589 13.175L70.0081 12.3102L67.3479 6.9172C67.2753 6.76954 67.1557 6.65001 67.0081 6.57735C66.6378 6.39454 66.1878 6.54688 66.0026 6.9172L63.3425 12.3102L57.3917 13.175C57.2276 13.1984 57.0776 13.2758 56.9628 13.393C56.8239 13.5357 56.7474 13.7277 56.7501 13.9267C56.7527 14.1258 56.8343 14.3157 56.9768 14.4547L61.2823 18.6524L60.2651 24.5797C60.2413 24.7176 60.2565 24.8594 60.3092 24.989C60.3618 25.1187 60.4497 25.231 60.5629 25.3132C60.6762 25.3955 60.8102 25.4443 60.9497 25.4543C61.0893 25.4642 61.2289 25.4349 61.3526 25.3695L66.6753 22.5711L71.9979 25.3695C72.1432 25.4469 72.312 25.4727 72.4737 25.4445C72.8815 25.3742 73.1557 24.9875 73.0854 24.5797L72.0682 18.6524L76.3737 14.4547C76.4909 14.3399 76.5682 14.1899 76.5917 14.0258C76.655 13.6156 76.369 13.2359 75.9589 13.175Z" fill="#FDC82A"/>
<path d="M103.959 13.175L98.0081 12.3102L95.3479 6.9172C95.2753 6.76954 95.1557 6.65001 95.0081 6.57735C94.6378 6.39454 94.1878 6.54688 94.0026 6.9172L91.3425 12.3102L85.3917 13.175C85.2276 13.1984 85.0776 13.2758 84.9628 13.393C84.8239 13.5357 84.7474 13.7277 84.7501 13.9267C84.7527 14.1258 84.8343 14.3157 84.9768 14.4547L89.2823 18.6524L88.2651 24.5797C88.2413 24.7176 88.2565 24.8594 88.3092 24.989C88.3618 25.1187 88.4497 25.231 88.5629 25.3132C88.6762 25.3955 88.8102 25.4443 88.9497 25.4543C89.0893 25.4642 89.2289 25.4349 89.3526 25.3695L94.6753 22.5711L99.9979 25.3695C100.143 25.4469 100.312 25.4727 100.474 25.4445C100.882 25.3742 101.156 24.9875 101.085 24.5797L100.068 18.6524L104.374 14.4547C104.491 14.3399 104.568 14.1899 104.592 14.0258C104.655 13.6156 104.369 13.2359 103.959 13.175Z" fill="#E5E0EB"/>
<path d="M131.959 13.175L126.008 12.3102L123.348 6.9172C123.275 6.76954 123.156 6.65001 123.008 6.57735C122.638 6.39454 122.188 6.54688 122.003 6.9172L119.342 12.3102L113.392 13.175C113.228 13.1984 113.078 13.2758 112.963 13.393C112.824 13.5357 112.747 13.7277 112.75 13.9267C112.753 14.1258 112.834 14.3157 112.977 14.4547L117.282 18.6524L116.265 24.5797C116.241 24.7176 116.257 24.8594 116.309 24.989C116.362 25.1187 116.45 25.231 116.563 25.3132C116.676 25.3955 116.81 25.4443 116.95 25.4543C117.089 25.4642 117.229 25.4349 117.353 25.3695L122.675 22.5711L127.998 25.3695C128.143 25.4469 128.312 25.4727 128.474 25.4445C128.882 25.3742 129.156 24.9875 129.085 24.5797L128.068 18.6524L132.374 14.4547C132.491 14.3399 132.568 14.1899 132.592 14.0258C132.655 13.6156 132.369 13.2359 131.959 13.175Z" fill="#E5E0EB"/>
</g>
<defs>
<clipPath id="clip0_44_381">
<rect width="132" height="31" fill="white" transform="translate(0.75)"/>
</clipPath>
</defs>
</svg>
