<svg width="237" height="101" viewBox="0 0 237 101" fill="none" xmlns="http://www.w3.org/2000/svg">
<g clip-path="url(#clip0_44_20)">
<path fill-rule="evenodd" clip-rule="evenodd" d="M207.128 0.104744C210.406 0.364914 213.504 1.17583 216.347 2.43952C212.179 4.49047 208.177 7.20705 205.298 10.8967L204.947 11.3461C202.614 11.3326 200.237 11.809 197.971 12.8294C197.482 13.049 197.013 13.2856 196.558 13.5424C196.835 9.09919 198.514 4.76415 200.628 0.892011L200.958 0.287201C202.964 0.00675767 205.028 -0.0641978 207.128 0.104744ZM196.019 60.8696V90.7148H171.369V31.4603C172.673 45.5399 182.64 57.2205 196.019 60.8696ZM171.369 25.179V0H186.575C178.159 5.48046 172.34 14.6236 171.369 25.179ZM232.264 35.1905L236.58 35.9035L235.943 40.7352C235.653 42.9416 235.629 43.2254 234.51 45.202C229.466 54.1086 220.629 60.3054 210.547 62.0252C208.929 62.3023 208.737 62.2414 207.152 61.9306L201.218 60.8764L201.798 56.5042C202.61 51.8583 212.874 48.3849 216.974 45.4655C221.104 42.5226 227.079 34.4979 232.264 35.1905ZM199.161 15.4919C206.228 12.3192 214.523 15.4886 217.689 22.5672C220.855 29.6492 217.695 37.9612 210.628 41.1339C203.561 44.3066 195.27 41.1373 192.101 34.0586C188.935 26.98 192.094 18.6647 199.161 15.4919ZM209.809 39.3059C208.791 39.7621 207.594 39.3059 207.139 38.2855C206.683 37.2651 207.139 36.069 208.157 35.6129C209.175 35.1534 210.372 35.6129 210.827 36.6333C211.282 37.6537 210.827 38.8498 209.809 39.3059ZM201.629 21.0163C200.611 21.4725 199.414 21.0163 198.959 19.9959C198.5 18.9755 198.959 17.7794 199.977 17.3199C200.995 16.8637 202.192 17.3199 202.648 18.3403C203.106 19.3607 202.648 20.5602 201.629 21.0163ZM196.592 34.258C195.574 34.7175 194.377 34.2613 193.922 33.2409C193.463 32.2205 193.922 31.021 194.94 30.5649C195.958 30.1054 197.155 30.5649 197.61 31.5819C198.065 32.6023 197.61 33.8018 196.592 34.258ZM214.843 26.0643C213.825 26.5204 212.628 26.0643 212.172 25.0439C211.714 24.0235 212.172 22.8274 213.191 22.3679C214.209 21.9117 215.406 22.3679 215.861 23.3883C216.32 24.4087 215.861 25.6048 214.846 26.0643H214.843ZM202.445 22.8443C205.463 21.4894 209 22.8443 210.352 25.8616C211.704 28.8856 210.352 32.43 207.341 33.7849C204.327 35.1365 200.786 33.7849 199.438 30.7643C198.086 27.7436 199.438 24.1992 202.449 22.8443H202.445ZM218.127 3.30788C222.901 5.84876 226.829 9.71076 229.469 14.3735C224.917 13.5491 220.103 13.3599 215.618 14.6134L215.082 14.7621C212.675 12.9511 209.822 11.809 206.835 11.4576C209.657 8.01459 213.558 5.4906 217.533 3.5917L218.123 3.30788H218.127ZM230.383 16.1305C232.453 20.4757 233.448 25.4054 233.04 30.5514C233.009 30.9197 232.976 31.2812 232.932 31.6427C229.749 28.3045 225.986 25.3243 221.643 23.6924L221.128 23.4964C220.915 22.7835 220.656 22.0739 220.342 21.3745C219.405 19.2796 218.093 17.4686 216.525 15.9819C220.834 14.8905 225.47 15.1777 229.793 16.0157L230.383 16.1305ZM232.635 33.5991L232.622 33.6734L232.483 33.6498H232.456C229.021 33.1936 225.666 35.6669 223.205 37.7821C223.151 37.826 223.1 37.8733 223.049 37.9172C222.52 36.7009 221.9 35.5216 221.175 34.4134L220.865 33.9302C221.819 31.217 222.085 28.2538 221.563 25.3277C225.693 26.9935 229.267 29.9668 232.271 33.2038L232.635 33.5991ZM221.826 39.0154C220.976 39.7959 220.143 40.5966 219.304 41.3907C218.289 42.3503 217.203 43.3876 216.067 44.1985C215.531 44.5769 214.9 44.9621 214.202 45.3574C214.388 44.5161 214.529 43.6646 214.62 42.8064L214.691 42.1577C217.072 40.4683 218.919 38.2213 220.14 35.6838C220.794 36.7448 221.35 37.8632 221.826 39.0187V39.0154ZM212.355 46.3508C207.482 48.8849 201.032 51.8583 200.264 56.2305C197.762 55.8183 195.378 55.0783 193.16 54.0613C197.287 52.0374 201.248 49.3546 204.111 45.7156L204.455 45.2797C206.913 45.3473 209.425 44.8742 211.818 43.7998C212.226 43.6173 212.628 43.418 213.012 43.2051C212.87 44.2661 212.645 45.3169 212.355 46.3508ZM191.396 53.176C186.774 50.6554 182.96 46.8847 180.371 42.3536C184.882 43.0902 189.629 43.1983 194.04 41.9043L194.552 41.7522C196.895 43.5565 199.67 44.7188 202.587 45.1243C199.748 48.5673 195.83 51.0812 191.838 52.9665L191.396 53.176ZM179.457 40.6135C177.346 36.2413 176.332 31.2677 176.743 26.0778C176.767 25.7906 176.794 25.5102 176.824 25.2297C180.037 28.5173 183.82 31.4366 188.166 33.0146L188.679 33.2004C188.888 33.8931 189.141 34.5756 189.441 35.2513C190.358 37.2989 191.626 39.0728 193.146 40.5358C188.841 41.6914 184.194 41.465 179.848 40.6811L179.457 40.6102V40.6135ZM177.104 23.2734C178.055 17.9652 180.465 13.2146 183.877 9.41004C184.582 13.9579 185.958 18.543 188.571 22.3611L188.878 22.8105C187.95 25.5203 187.701 28.47 188.234 31.3792C184.086 29.7607 180.472 26.8279 177.434 23.6248L177.104 23.2734ZM185.243 7.99093C188.999 4.34518 193.75 1.75361 198.999 0.631841C196.815 4.74726 195.152 9.30868 194.977 13.9985L194.957 14.5695C192.6 16.2792 190.776 18.5329 189.582 21.0771C187.148 17.3368 185.917 12.8429 185.307 8.46397L185.243 7.99093Z" fill="#FEC80A"/>
<path fill-rule="evenodd" clip-rule="evenodd" d="M4.22807 100.908H2.78163L1.30146 98.6949C1.27112 98.651 1.22729 98.5564 1.1666 98.4145H1.14974V100.911H0V95.8128H1.14637V98.2219H1.16323C1.19357 98.1543 1.24077 98.0597 1.30484 97.9381L2.71082 95.8128H4.07635L2.30285 98.2455L4.22807 100.911V100.908ZM14.215 100.999C13.4867 100.999 12.8933 100.759 12.4313 100.286C11.9728 99.8099 11.7435 99.1916 11.7435 98.428C11.7435 97.6238 11.9762 96.9717 12.4415 96.475C12.9068 95.9784 13.5238 95.7283 14.2925 95.7283C15.0208 95.7283 15.6075 95.9682 16.0559 96.4446C16.5043 96.921 16.7269 97.5495 16.7269 98.3266C16.7269 99.1038 16.4942 99.7728 16.0289 100.263C15.567 100.753 14.9601 100.999 14.2116 100.999H14.215ZM14.2622 96.7149C13.8609 96.7149 13.5406 96.867 13.3046 97.1677C13.0686 97.4684 12.9506 97.8671 12.9506 98.3672C12.9506 98.8673 13.0686 99.2727 13.3046 99.5667C13.5406 99.8606 13.8508 100.006 14.2318 100.006C14.6128 100.006 14.9399 99.864 15.1725 99.5802C15.4018 99.293 15.5198 98.8977 15.5198 98.3908C15.5198 97.884 15.4085 97.4515 15.1826 97.1576C14.9567 96.8636 14.6499 96.7149 14.2588 96.7149H14.2622ZM29.1885 100.908H27.8736L27.0846 99.5971C27.0239 99.4957 26.9666 99.4079 26.9127 99.3302C26.8587 99.2524 26.8048 99.1849 26.7475 99.1308C26.6935 99.0734 26.6328 99.0328 26.5721 99.0024C26.5114 98.972 26.444 98.9585 26.3766 98.9585H26.0664V100.908H24.92V95.8094H26.7373C27.9714 95.8094 28.5884 96.2723 28.5884 97.1947C28.5884 97.3738 28.5614 97.536 28.5075 97.688C28.4535 97.8401 28.376 97.9752 28.2782 98.0969C28.1804 98.2185 28.059 98.3199 27.9174 98.4111C27.7758 98.499 27.6207 98.5665 27.4454 98.6172V98.6307C27.5229 98.6544 27.5937 98.6916 27.6679 98.7456C27.7387 98.7997 27.8062 98.8605 27.8736 98.9314C27.9377 99.0024 28.0017 99.0801 28.0624 99.1612C28.1231 99.2423 28.177 99.3234 28.2276 99.4011L29.1885 100.908ZM26.0664 96.671V98.0901H26.562C26.8081 98.0901 27.0071 98.0192 27.1554 97.8773C27.3072 97.732 27.3813 97.5529 27.3813 97.34C27.3813 96.894 27.115 96.671 26.5822 96.671H26.0664ZM40.0656 100.908H37.0142V95.8094H39.9475V96.7453H38.1606V97.8806H39.8228V98.8098H38.1606V99.9755H40.0656V100.908ZM52.7026 100.908H51.4551L51.0943 99.7762H49.2837L48.9263 100.908H47.6855L49.5399 95.8094H50.8987L52.7059 100.908H52.7026ZM50.8313 98.8943L50.2851 97.1812C50.2446 97.0528 50.2143 96.9008 50.1974 96.7251H50.1704C50.157 96.8737 50.13 97.0224 50.0828 97.1677L49.5298 98.8943H50.8313ZM65.2654 100.908H64.1089L62.0118 97.7049C61.8904 97.5191 61.8027 97.3772 61.7555 97.2826H61.742C61.7589 97.4617 61.769 97.7387 61.769 98.107V100.908H60.6867V95.8094H61.9207L63.937 98.9112C64.028 99.0531 64.1123 99.1882 64.1932 99.3268H64.2067C64.1898 99.2085 64.1764 98.9754 64.1764 98.6274V95.8094H65.2587V100.908H65.2654ZM79.5546 100.712V99.5734C79.7602 99.7491 79.9861 99.8775 80.2255 99.962C80.4649 100.046 80.711 100.094 80.9538 100.094C81.0988 100.094 81.2269 100.08 81.3314 100.053C81.4393 100.026 81.5303 99.9924 81.6012 99.9451C81.6753 99.8978 81.7293 99.8437 81.763 99.7829C81.8001 99.7187 81.8169 99.6511 81.8169 99.5802C81.8169 99.4788 81.79 99.391 81.7327 99.3133C81.6753 99.2355 81.5978 99.1612 81.5 99.097C81.4022 99.0294 81.2842 98.9652 81.1494 98.9044C81.0145 98.8436 80.8695 98.7794 80.7144 98.7152C80.3166 98.5496 80.0198 98.3469 79.8243 98.107C79.6287 97.8671 79.5343 97.5799 79.5343 97.2387C79.5343 96.9717 79.5849 96.7453 79.6928 96.5561C79.8007 96.3635 79.9457 96.2081 80.1277 96.0831C80.3132 95.9615 80.5256 95.8702 80.765 95.8094C81.0044 95.752 81.2606 95.7216 81.5303 95.7216C81.8001 95.7216 82.0294 95.7385 82.235 95.7722C82.4373 95.8027 82.6261 95.8533 82.8015 95.9209V96.9852C82.7172 96.9244 82.6228 96.8737 82.5216 96.8298C82.4205 96.7859 82.3159 96.7453 82.2114 96.7149C82.1069 96.6845 81.999 96.6643 81.8945 96.6507C81.79 96.6372 81.6888 96.6305 81.5944 96.6305C81.4629 96.6305 81.3449 96.644 81.2404 96.6676C81.1325 96.6913 81.0448 96.7285 80.9706 96.7724C80.8998 96.8163 80.8425 96.8704 80.8021 96.9346C80.7616 96.9988 80.7414 97.0663 80.7414 97.1441C80.7414 97.2285 80.765 97.3062 80.8088 97.3738C80.8526 97.4414 80.9167 97.509 81.001 97.5664C81.0853 97.6272 81.1831 97.6847 81.3011 97.7421C81.4191 97.7995 81.554 97.8604 81.7023 97.9212C81.9046 98.0057 82.0867 98.0969 82.2485 98.1915C82.4104 98.2861 82.5486 98.3942 82.6632 98.5159C82.7779 98.6375 82.8689 98.776 82.9296 98.9314C82.9903 99.0835 83.0206 99.266 83.0206 99.4721C83.0206 99.7559 82.9667 99.9958 82.8588 100.188C82.7509 100.381 82.6059 100.54 82.4205 100.658C82.2384 100.776 82.0226 100.864 81.7765 100.918C81.5303 100.969 81.2741 100.996 81.001 100.996C80.7279 100.996 80.4582 100.972 80.2053 100.925C79.9524 100.878 79.7332 100.807 79.5478 100.712H79.5546ZM92.3568 99.1511V100.905H91.2104V95.806H93.0075C94.2887 95.806 94.9294 96.3466 94.9294 97.4312C94.9294 97.9448 94.7439 98.3571 94.3764 98.6747C94.0089 98.9889 93.52 99.1477 92.903 99.1477H92.3568V99.1511ZM92.3568 96.6913V98.2793H92.8086C93.4189 98.2793 93.7223 98.0124 93.7223 97.4752C93.7223 96.9379 93.4155 96.6913 92.8086 96.6913H92.3568ZM107.499 100.908H106.251L105.891 99.7762H104.083L103.723 100.908H102.482L104.336 95.8094H105.695L107.506 100.908H107.499ZM105.628 98.8943L105.081 97.1812C105.041 97.0528 105.014 96.9008 104.997 96.7251H104.97C104.957 96.8737 104.926 97.0224 104.879 97.1677L104.326 98.8943H105.628ZM119.752 100.908H118.437L117.644 99.5971C117.584 99.4957 117.53 99.4079 117.476 99.3302C117.422 99.2524 117.364 99.1849 117.311 99.1308C117.253 99.0734 117.196 99.0328 117.135 99.0024C117.074 98.972 117.01 98.9585 116.94 98.9585H116.633V100.908H115.486V95.8094H117.304C118.538 95.8094 119.158 96.2723 119.158 97.1947C119.158 97.3738 119.131 97.536 119.074 97.688C119.02 97.8401 118.942 97.9752 118.845 98.0969C118.743 98.2185 118.625 98.3199 118.484 98.4111C118.342 98.499 118.184 98.5665 118.012 98.6172V98.6307C118.089 98.6544 118.16 98.6916 118.231 98.7456C118.302 98.7997 118.369 98.8605 118.437 98.9314C118.504 99.0024 118.565 99.0801 118.625 99.1612C118.686 99.2423 118.74 99.3234 118.791 99.4011L119.752 100.908ZM116.629 96.671V98.0901H117.125C117.371 98.0901 117.567 98.0192 117.715 97.8773C117.867 97.732 117.944 97.5529 117.944 97.34C117.944 96.894 117.678 96.671 117.145 96.671H116.629ZM130.629 100.908H127.577V95.8094H130.511V96.7453H128.724V97.8806H130.386V98.8098H128.724V99.9755H130.629V100.908Z" fill="white"/>
<path fill-rule="evenodd" clip-rule="evenodd" d="M145.956 99.156V100.91H144.81V95.8109H146.604C147.885 95.8109 148.525 96.3515 148.525 97.4361C148.525 97.9497 148.34 98.3619 147.972 98.6795C147.605 98.9938 147.113 99.1526 146.499 99.1526H145.953L145.956 99.156ZM145.956 96.6962V98.2842H146.408C147.018 98.2842 147.322 98.0173 147.322 97.4801C147.322 96.9428 147.018 96.6962 146.408 96.6962H145.956ZM161.098 100.913H159.851L159.49 99.781H157.683L157.325 100.913H156.085L157.936 95.8143H159.295L161.102 100.913H161.098ZM159.224 98.8992L158.677 97.1861C158.637 97.0577 158.61 96.9057 158.593 96.73H158.566C158.553 96.8786 158.526 97.0273 158.479 97.1726L157.926 98.8992H159.227H159.224ZM173.351 100.913H172.036L171.247 99.602C171.186 99.5006 171.129 99.4127 171.075 99.335C171.021 99.2573 170.967 99.1897 170.91 99.1357C170.853 99.0782 170.795 99.0377 170.735 99.0073C170.674 98.9769 170.606 98.9634 170.539 98.9634H170.229V100.913H169.082V95.8143H170.9C172.134 95.8143 172.751 96.2772 172.751 97.1996C172.751 97.3787 172.724 97.5409 172.67 97.6929C172.616 97.845 172.538 97.9801 172.441 98.1018C172.343 98.2234 172.221 98.3248 172.08 98.416C171.938 98.5038 171.783 98.5714 171.608 98.6221V98.6356C171.685 98.6593 171.756 98.6964 171.83 98.7505C171.901 98.8046 171.969 98.8654 172.036 98.9363C172.103 99.0073 172.164 99.085 172.225 99.1661C172.286 99.2472 172.34 99.3283 172.39 99.406L173.351 100.913ZM170.229 96.6759V98.095H170.724C170.971 98.095 171.17 98.024 171.318 97.8821C171.47 97.7368 171.547 97.5578 171.547 97.3449C171.547 96.8989 171.281 96.6759 170.748 96.6759H170.229ZM184.747 96.7502H183.297V100.913H182.148V96.7502H180.705V95.8143H184.747V96.7502ZM192.549 100.717V99.5783C192.755 99.754 192.981 99.8824 193.22 99.9669C193.463 100.051 193.706 100.099 193.952 100.099C194.097 100.099 194.225 100.085 194.33 100.058C194.437 100.031 194.525 99.9973 194.599 99.95C194.67 99.9027 194.724 99.8486 194.761 99.7878C194.798 99.7236 194.815 99.656 194.815 99.5851C194.815 99.4837 194.788 99.3959 194.731 99.3181C194.673 99.2404 194.596 99.1661 194.498 99.1019C194.4 99.0343 194.282 98.9701 194.147 98.9093C194.013 98.8485 193.868 98.7843 193.713 98.7201C193.315 98.5545 193.018 98.3518 192.822 98.1119C192.627 97.872 192.532 97.5848 192.532 97.2435C192.532 96.9766 192.583 96.7502 192.691 96.561C192.799 96.3684 192.944 96.213 193.126 96.088C193.311 95.9663 193.524 95.8751 193.763 95.8143C194.006 95.7569 194.259 95.7264 194.528 95.7264C194.798 95.7264 195.027 95.7433 195.233 95.7771C195.435 95.8075 195.624 95.8582 195.8 95.9258V96.9901C195.715 96.9293 195.621 96.8786 195.52 96.8347C195.419 96.7908 195.314 96.7502 195.21 96.7198C195.105 96.6894 194.997 96.6691 194.893 96.6556C194.788 96.6421 194.687 96.6353 194.593 96.6353C194.461 96.6353 194.346 96.6489 194.238 96.6725C194.131 96.6962 194.043 96.7333 193.969 96.7773C193.898 96.8212 193.841 96.8752 193.797 96.9394C193.756 97.0036 193.736 97.0712 193.736 97.1489C193.736 97.2334 193.76 97.3111 193.804 97.3787C193.847 97.4463 193.911 97.5138 193.996 97.5713C194.077 97.6321 194.178 97.6895 194.299 97.747C194.417 97.8044 194.552 97.8652 194.7 97.9261C194.906 98.0105 195.085 98.1018 195.25 98.1964C195.412 98.291 195.55 98.3991 195.665 98.5207C195.779 98.6424 195.87 98.7809 195.931 98.9363C195.992 99.0884 196.022 99.2708 196.022 99.4769C196.022 99.7608 195.968 100.001 195.86 100.193C195.752 100.386 195.607 100.545 195.422 100.663C195.236 100.781 195.024 100.869 194.778 100.923C194.532 100.974 194.272 101.001 194.002 101.001C193.733 101.001 193.46 100.977 193.207 100.93C192.954 100.883 192.735 100.812 192.553 100.717H192.549Z" fill="#FEC80A"/>
<path fill-rule="evenodd" clip-rule="evenodd" d="M165.92 59.829C165.92 76.8887 152.12 90.7148 135.096 90.7148H102.971V66.0122H132.311C139.277 65.7588 140.524 59.6837 140.208 56.5853C139.432 49.0235 128.815 40.9109 123.572 35.7446C116.218 28.5004 109.198 20.2291 108.436 9.1769C108.167 5.86227 108.541 2.80105 109.421 0H134.273C125.042 18.6951 165.917 28.9464 165.917 59.829H165.92Z" fill="white"/>
<path fill-rule="evenodd" clip-rule="evenodd" d="M94.9968 0L59.0852 45.3574L97.4345 90.7148H67.892L29.5426 45.3574L65.4543 0H94.9968Z" fill="white"/>
<path fill-rule="evenodd" clip-rule="evenodd" d="M0 45.3574L38.3527 90.7148H0V45.3574L35.9117 0H0V45.3574Z" fill="white"/>
</g>
<defs>
<clipPath id="clip0_44_20">
<rect width="236.577" height="101" fill="white"/>
</clipPath>
</defs>
</svg>
