<svg width="146" height="34" viewBox="0 0 146 34" fill="none" xmlns="http://www.w3.org/2000/svg">
<g clip-path="url(#clip0_235_292)">
<path fill-rule="evenodd" clip-rule="evenodd" d="M61.5241 2.03111C62.4975 2.10839 63.4179 2.34926 64.2622 2.72461C63.0243 3.3338 61.8356 4.14071 60.9803 5.23665L60.8761 5.37013C60.1831 5.36612 59.4771 5.50763 58.8041 5.81072C58.6588 5.87595 58.5196 5.94621 58.3844 6.02248C58.4666 4.70273 58.9653 3.41509 59.5932 2.26495L59.6914 2.08531C60.2873 2.00201 60.9002 1.98093 61.5241 2.03111ZM58.2242 20.0801V28.945H50.9023V11.3446C51.2899 15.5267 54.2503 18.9962 58.2242 20.0801ZM50.9023 9.47892V2H55.419C52.9193 3.62786 51.1908 6.34364 50.9023 9.47892ZM68.9902 12.4526L70.2721 12.6644L70.0828 14.0996C69.9967 14.7549 69.9897 14.8392 69.6572 15.4263C68.159 18.0719 65.5341 19.9125 62.5396 20.4233C62.0589 20.5056 62.0018 20.4876 61.5311 20.3952L59.7685 20.0821L59.9408 18.7834C60.1821 17.4035 63.2306 16.3717 64.4484 15.5046C65.6753 14.6305 67.4499 12.2469 68.9902 12.4526ZM59.1576 6.60157C61.2567 5.65917 63.7204 6.60056 64.6608 8.70313C65.6012 10.8067 64.6628 13.2756 62.5636 14.218C60.4645 15.1604 58.0019 14.219 57.0605 12.1164C56.1201 10.0139 57.0585 7.54396 59.1576 6.60157ZM62.3203 13.675C62.0178 13.8105 61.6623 13.675 61.5271 13.3719C61.3919 13.0688 61.5271 12.7136 61.8296 12.5781C62.132 12.4416 62.4875 12.5781 62.6227 12.8812C62.7579 13.1843 62.6227 13.5395 62.3203 13.675ZM59.8907 8.24247C59.5882 8.37796 59.2327 8.24247 59.0975 7.93938C58.9613 7.63629 59.0975 7.28101 59.4 7.14452C59.7024 7.00903 60.0579 7.14452 60.1931 7.44761C60.3293 7.7507 60.1931 8.10699 59.8907 8.24247ZM58.3945 12.1756C58.092 12.3121 57.7365 12.1766 57.6013 11.8735C57.4651 11.5705 57.6013 11.2142 57.9037 11.0787C58.2062 10.9422 58.5617 11.0787 58.6969 11.3808C58.8321 11.6839 58.6969 12.0401 58.3945 12.1756ZM63.8155 9.74187C63.5131 9.87736 63.1575 9.74187 63.0223 9.43878C62.8861 9.13569 63.0223 8.78041 63.3248 8.64392C63.6272 8.50843 63.9827 8.64392 64.1179 8.94701C64.2542 9.2501 64.118 9.60538 63.8165 9.74187H63.8155ZM60.133 8.78543C61.0294 8.38298 62.0799 8.78543 62.4815 9.68165C62.8831 10.5799 62.4815 11.6327 61.5872 12.0351C60.6919 12.4366 59.6403 12.0351 59.2397 11.1379C58.8381 10.2407 59.2397 9.18788 60.134 8.78543H60.133ZM64.7909 2.98254C66.2091 3.73725 67.3758 4.88438 68.16 6.26937C66.8079 6.02449 65.3778 5.96829 64.0458 6.34063L63.8866 6.38479C63.1715 5.84685 62.3243 5.50763 61.437 5.40325C62.2752 4.38057 63.4339 3.63087 64.6147 3.06684L64.7899 2.98254H64.7909ZM68.4313 6.79125C69.0463 8.08189 69.3417 9.54617 69.2205 11.0747C69.2115 11.1841 69.2015 11.2914 69.1885 11.3988C68.2431 10.4073 67.1254 9.52208 65.8355 9.03733L65.6823 8.97913C65.6192 8.76736 65.5421 8.5566 65.4489 8.34886C65.1705 7.72662 64.7809 7.18868 64.3152 6.74709C65.5951 6.42292 66.9722 6.50823 68.2561 6.75713L68.4313 6.79125ZM69.1003 11.9799L69.0963 12.002L69.0553 11.995H69.0473C68.0268 11.8595 67.0303 12.5941 66.2992 13.2224C66.2832 13.2354 66.2681 13.2495 66.2531 13.2625C66.0959 12.9012 65.9116 12.551 65.6963 12.2218L65.6042 12.0783C65.8876 11.2724 65.9667 10.3922 65.8115 9.52308C67.0383 10.0179 68.0999 10.901 68.9922 11.8625L69.1003 11.9799ZM65.8896 13.5887C65.6372 13.8206 65.3898 14.0584 65.1405 14.2943C64.839 14.5793 64.5165 14.8874 64.179 15.1283C64.0198 15.2407 63.8325 15.3551 63.6252 15.4725C63.6803 15.2226 63.7224 14.9697 63.7494 14.7148L63.7704 14.5221C64.4775 14.0203 65.0263 13.3529 65.3888 12.5992C65.5831 12.9143 65.7484 13.2465 65.8896 13.5897V13.5887ZM63.0764 15.7676C61.6293 16.5203 59.7134 17.4035 59.4851 18.7021C58.742 18.5797 58.0339 18.3599 57.3749 18.0578C58.6008 17.4566 59.7775 16.6598 60.6278 15.5789L60.7299 15.4494C61.46 15.4695 62.2061 15.329 62.9172 15.0098C63.0383 14.9556 63.1575 14.8964 63.2717 14.8332C63.2296 15.1483 63.1625 15.4605 63.0764 15.7676ZM56.8512 17.7949C55.4781 17.0462 54.3455 15.9261 53.5763 14.5803C54.9163 14.7991 56.3264 14.8312 57.6363 14.4468L57.7886 14.4016C58.4846 14.9376 59.3088 15.2828 60.1751 15.4033C59.3318 16.4259 58.1681 17.1726 56.9824 17.7326L56.8512 17.7949ZM53.3049 14.0634C52.678 12.7648 52.3765 11.2874 52.4987 9.74589C52.5057 9.66058 52.5137 9.57728 52.5227 9.49398C53.4772 10.4705 54.6008 11.3376 55.8917 11.8063L56.044 11.8615C56.1061 12.0672 56.1812 12.27 56.2703 12.4707C56.5427 13.0789 56.9193 13.6058 57.3709 14.0403C56.092 14.3836 54.712 14.3163 53.4211 14.0835L53.3049 14.0624V14.0634ZM52.6059 8.91289C52.8883 7.33621 53.6044 5.92513 54.6179 4.79506C54.8272 6.14593 55.2358 7.50783 56.0119 8.64191L56.1031 8.77539C55.8277 9.58029 55.7535 10.4564 55.9118 11.3206C54.68 10.8398 53.6064 9.96869 52.704 9.01726L52.6059 8.91289ZM55.0235 4.37354C56.1391 3.29065 57.5502 2.52088 59.1095 2.18768C58.4606 3.41008 57.9668 4.76495 57.9148 6.15797L57.9087 6.32758C57.2087 6.83541 56.6669 7.50482 56.3124 8.26054C55.5893 7.14954 55.2238 5.81473 55.0425 4.51405L55.0235 4.37354Z" fill="#FEC80A"/>
<path fill-rule="evenodd" clip-rule="evenodd" d="M1.25586 31.9732H0.826226L0.386574 31.3158C0.37756 31.3028 0.364541 31.2746 0.346514 31.2325H0.341507V31.9742H0V30.4597H0.340505V31.1753H0.345513C0.354526 31.1552 0.368547 31.1271 0.387575 31.091L0.805195 30.4597H1.2108L0.684015 31.1823L1.25586 31.9742V31.9732ZM4.22227 32.0003C4.00594 32.0003 3.82968 31.929 3.69248 31.7885C3.55628 31.647 3.48818 31.4633 3.48818 31.2365C3.48818 30.9977 3.55728 30.804 3.69548 30.6564C3.83369 30.5089 4.01696 30.4346 4.2453 30.4346C4.46162 30.4346 4.63588 30.5059 4.76908 30.6474C4.90227 30.7889 4.96837 30.9756 4.96837 31.2064C4.96837 31.4372 4.89927 31.6359 4.76107 31.7815C4.62386 31.927 4.44359 32.0003 4.22126 32.0003H4.22227ZM4.23629 30.7277C4.11711 30.7277 4.02197 30.7728 3.95186 30.8622C3.88176 30.9515 3.84671 31.0699 3.84671 31.2184C3.84671 31.367 3.88176 31.4874 3.95186 31.5747C4.02197 31.662 4.11411 31.7052 4.22727 31.7052C4.34044 31.7052 4.43759 31.663 4.50669 31.5787C4.57479 31.4934 4.60984 31.376 4.60984 31.2255C4.60984 31.0749 4.57679 30.9465 4.50969 30.8592C4.44259 30.7718 4.35146 30.7277 4.23529 30.7277H4.23629ZM8.66987 31.9732H8.27929L8.04494 31.5838C8.02691 31.5537 8.00989 31.5276 7.99386 31.5045C7.97784 31.4814 7.96182 31.4613 7.94479 31.4453C7.92877 31.4282 7.91074 31.4162 7.89271 31.4071C7.87469 31.3981 7.85466 31.3941 7.83463 31.3941H7.74249V31.9732H7.40198V30.4587H7.94179C8.30833 30.4587 8.4916 30.5962 8.4916 30.8702C8.4916 30.9234 8.48359 30.9716 8.46757 31.0167C8.45154 31.0619 8.42851 31.102 8.39946 31.1382C8.37042 31.1743 8.33437 31.2044 8.29231 31.2315C8.25024 31.2576 8.20417 31.2777 8.1521 31.2927V31.2967C8.17513 31.3038 8.19616 31.3148 8.21819 31.3309C8.23923 31.3469 8.25926 31.365 8.27929 31.386C8.29831 31.4071 8.31734 31.4302 8.33537 31.4543C8.3534 31.4784 8.36942 31.5025 8.38444 31.5256L8.66987 31.9732ZM7.74249 30.7146V31.1362H7.88971C7.96282 31.1362 8.0219 31.1151 8.06597 31.0729C8.11104 31.0298 8.13307 30.9766 8.13307 30.9133C8.13307 30.7809 8.05395 30.7146 7.89572 30.7146H7.74249ZM11.9007 31.9732H10.9943V30.4587H11.8656V30.7367H11.3348V31.0739H11.8286V31.3499H11.3348V31.6962H11.9007V31.9732ZM15.6542 31.9732H15.2837L15.1765 31.637H14.6387L14.5326 31.9732H14.164L14.7148 30.4587H15.1184L15.6552 31.9732H15.6542ZM15.0984 31.375L14.9362 30.8662C14.9241 30.828 14.9151 30.7829 14.9101 30.7307H14.9021C14.8981 30.7748 14.8901 30.819 14.8761 30.8622L14.7118 31.375H15.0984ZM19.3858 31.9732H19.0423L18.4193 31.0217C18.3833 30.9665 18.3572 30.9244 18.3432 30.8963H18.3392C18.3442 30.9495 18.3472 31.0318 18.3472 31.1412V31.9732H18.0258V30.4587H18.3923L18.9912 31.38C19.0182 31.4222 19.0433 31.4623 19.0673 31.5035H19.0713C19.0663 31.4683 19.0623 31.3991 19.0623 31.2957V30.4587H19.3838V31.9732H19.3858ZM23.6301 31.915V31.5767C23.6912 31.6289 23.7583 31.6671 23.8294 31.6922C23.9005 31.7172 23.9736 31.7313 24.0457 31.7313C24.0887 31.7313 24.1268 31.7273 24.1579 31.7192C24.1899 31.7112 24.2169 31.7012 24.238 31.6871C24.26 31.6731 24.276 31.657 24.286 31.639C24.2971 31.6199 24.3021 31.5998 24.3021 31.5787C24.3021 31.5486 24.2941 31.5225 24.277 31.4995C24.26 31.4764 24.237 31.4543 24.2079 31.4352C24.1789 31.4152 24.1438 31.3961 24.1038 31.378C24.0637 31.36 24.0206 31.3409 23.9746 31.3218C23.8564 31.2726 23.7683 31.2124 23.7102 31.1412C23.6521 31.0699 23.6241 30.9846 23.6241 30.8832C23.6241 30.804 23.6391 30.7367 23.6711 30.6805C23.7032 30.6233 23.7462 30.5771 23.8003 30.54C23.8554 30.5039 23.9185 30.4768 23.9896 30.4587C24.0607 30.4417 24.1368 30.4326 24.2169 30.4326C24.2971 30.4326 24.3652 30.4376 24.4262 30.4477C24.4863 30.4567 24.5424 30.4718 24.5945 30.4918V30.808C24.5695 30.7899 24.5414 30.7748 24.5114 30.7618C24.4813 30.7488 24.4503 30.7367 24.4192 30.7277C24.3882 30.7186 24.3561 30.7126 24.3251 30.7086C24.2941 30.7046 24.264 30.7026 24.236 30.7026C24.1969 30.7026 24.1619 30.7066 24.1308 30.7136C24.0988 30.7207 24.0727 30.7317 24.0507 30.7447C24.0297 30.7578 24.0126 30.7738 24.0006 30.7929C23.9886 30.812 23.9826 30.8321 23.9826 30.8551C23.9826 30.8802 23.9896 30.9033 24.0026 30.9234C24.0156 30.9435 24.0347 30.9635 24.0597 30.9806C24.0847 30.9987 24.1138 31.0157 24.1488 31.0328C24.1839 31.0498 24.2239 31.0679 24.268 31.086C24.3281 31.1111 24.3822 31.1382 24.4303 31.1663C24.4783 31.1944 24.5194 31.2265 24.5534 31.2626C24.5875 31.2987 24.6145 31.3399 24.6326 31.386C24.6506 31.4312 24.6596 31.4854 24.6596 31.5466C24.6596 31.6309 24.6436 31.7022 24.6115 31.7594C24.5795 31.8166 24.5364 31.8638 24.4813 31.8989C24.4272 31.934 24.3632 31.9601 24.29 31.9762C24.2169 31.9912 24.1408 31.9993 24.0597 31.9993C23.9786 31.9993 23.8985 31.9922 23.8234 31.9782C23.7482 31.9641 23.6831 31.9431 23.6281 31.915H23.6301ZM27.4327 31.4513V31.9722H27.0922V30.4577H27.626C28.0066 30.4577 28.1968 30.6183 28.1968 30.9404C28.1968 31.093 28.1418 31.2154 28.0326 31.3098C27.9234 31.4031 27.7782 31.4503 27.595 31.4503H27.4327V31.4513ZM27.4327 30.7207V31.1924H27.5669C27.7482 31.1924 27.8383 31.1131 27.8383 30.9535C27.8383 30.7939 27.7472 30.7207 27.5669 30.7207H27.4327ZM31.9304 31.9732H31.5598L31.4527 31.637H30.9159L30.8087 31.9732H30.4402L30.991 30.4587H31.3946L31.9324 31.9732H31.9304ZM31.3746 31.375L31.2123 30.8662C31.2003 30.828 31.1923 30.7829 31.1873 30.7307H31.1793C31.1753 30.7748 31.1663 30.819 31.1522 30.8622L30.988 31.375H31.3746ZM35.5698 31.9732H35.1792L34.9439 31.5838C34.9258 31.5537 34.9098 31.5276 34.8938 31.5045C34.8778 31.4814 34.8607 31.4613 34.8447 31.4453C34.8277 31.4282 34.8107 31.4162 34.7926 31.4071C34.7746 31.3981 34.7556 31.3941 34.7345 31.3941H34.6434V31.9732H34.3029V30.4587H34.8427C35.2093 30.4587 35.3935 30.5962 35.3935 30.8702C35.3935 30.9234 35.3855 30.9716 35.3685 31.0167C35.3525 31.0619 35.3294 31.102 35.3004 31.1382C35.2703 31.1743 35.2353 31.2044 35.1932 31.2315C35.1512 31.2576 35.1041 31.2777 35.053 31.2927V31.2967C35.0761 31.3038 35.0971 31.3148 35.1181 31.3309C35.1391 31.3469 35.1592 31.365 35.1792 31.386C35.1992 31.4071 35.2173 31.4302 35.2353 31.4543C35.2533 31.4784 35.2693 31.5025 35.2844 31.5256L35.5698 31.9732ZM34.6424 30.7146V31.1362H34.7896C34.8627 31.1362 34.9208 31.1151 34.9649 31.0729C35.01 31.0298 35.033 30.9766 35.033 30.9133C35.033 30.7809 34.9539 30.7146 34.7956 30.7146H34.6424ZM38.8006 31.9732H37.8942V30.4587H38.7655V30.7367H38.2347V31.0739H38.7285V31.3499H38.2347V31.6962H38.8006V31.9732Z" fill="white"/>
<path fill-rule="evenodd" clip-rule="evenodd" d="M43.3561 31.4523V31.9731H43.0156V30.4587H43.5484C43.929 30.4587 44.1193 30.6193 44.1193 30.9414C44.1193 31.094 44.0642 31.2164 43.955 31.3108C43.8459 31.4041 43.6996 31.4513 43.5174 31.4513H43.3551L43.3561 31.4523ZM43.3561 30.7216V31.1933H43.4903C43.6716 31.1933 43.7617 31.114 43.7617 30.9545C43.7617 30.7949 43.6716 30.7216 43.4903 30.7216H43.3561ZM47.8538 31.9741H47.4833L47.3761 31.6379H46.8393L46.7331 31.9741H46.3646L46.9144 30.4597H47.318L47.8548 31.9741H47.8538ZM47.297 31.376L47.1347 30.8672C47.1227 30.829 47.1147 30.7839 47.1097 30.7317H47.1017C47.0977 30.7758 47.0897 30.82 47.0757 30.8631L46.9114 31.376H47.298H47.297ZM51.4932 31.9741H51.1026L50.8683 31.5847C50.8503 31.5546 50.8332 31.5285 50.8172 31.5055C50.8012 31.4824 50.7852 31.4623 50.7681 31.4462C50.7511 31.4292 50.7341 31.4171 50.7161 31.4081C50.698 31.3991 50.678 31.3951 50.658 31.3951H50.5658V31.9741H50.2253V30.4597H50.7651C51.1317 30.4597 51.3149 30.5972 51.3149 30.8712C51.3149 30.9244 51.3069 30.9725 51.2909 31.0177C51.2749 31.0629 51.2518 31.103 51.2228 31.1391C51.1938 31.1753 51.1577 31.2054 51.1156 31.2325C51.0736 31.2586 51.0275 31.2786 50.9754 31.2937V31.2977C50.9985 31.3047 51.0195 31.3158 51.0415 31.3318C51.0626 31.3479 51.0826 31.366 51.1026 31.387C51.1227 31.4081 51.1407 31.4312 51.1587 31.4553C51.1767 31.4794 51.1928 31.5034 51.2078 31.5265L51.4932 31.9741ZM50.5658 30.7156V31.1371H50.713C50.7862 31.1371 50.8452 31.1161 50.8893 31.0739C50.9344 31.0307 50.9574 30.9776 50.9574 30.9143C50.9574 30.7818 50.8783 30.7156 50.7201 30.7156H50.5658ZM54.8782 30.7377H54.4476V31.9741H54.1061V30.7377H53.6774V30.4597H54.8782V30.7377ZM57.1957 31.9159V31.5777C57.2568 31.6299 57.3239 31.668 57.395 31.6931C57.4671 31.7182 57.5392 31.7323 57.6123 31.7323C57.6553 31.7323 57.6934 31.7283 57.7245 31.7202C57.7565 31.7122 57.7825 31.7022 57.8046 31.6881C57.8256 31.6741 57.8416 31.658 57.8526 31.6399C57.8637 31.6209 57.8687 31.6008 57.8687 31.5797C57.8687 31.5496 57.8607 31.5235 57.8436 31.5004C57.8266 31.4774 57.8036 31.4553 57.7745 31.4362C57.7455 31.4161 57.7104 31.3971 57.6704 31.379C57.6303 31.3609 57.5873 31.3419 57.5412 31.3228C57.423 31.2736 57.3349 31.2134 57.2768 31.1421C57.2187 31.0709 57.1907 30.9856 57.1907 30.8842C57.1907 30.8049 57.2057 30.7377 57.2377 30.6815C57.2698 30.6243 57.3128 30.5781 57.3669 30.541C57.422 30.5049 57.4851 30.4778 57.5562 30.4597C57.6283 30.4426 57.7034 30.4336 57.7835 30.4336C57.8637 30.4336 57.9318 30.4386 57.9928 30.4486C58.0529 30.4577 58.109 30.4727 58.1611 30.4928V30.8089C58.1361 30.7909 58.108 30.7758 58.078 30.7628C58.0479 30.7497 58.0169 30.7377 57.9858 30.7287C57.9548 30.7196 57.9228 30.7136 57.8917 30.7096C57.8607 30.7056 57.8306 30.7036 57.8026 30.7036C57.7635 30.7036 57.7295 30.7076 57.6974 30.7146C57.6654 30.7216 57.6393 30.7327 57.6173 30.7457C57.5963 30.7588 57.5792 30.7748 57.5662 30.7939C57.5542 30.813 57.5482 30.833 57.5482 30.8561C57.5482 30.8812 57.5552 30.9043 57.5682 30.9244C57.5812 30.9444 57.6003 30.9645 57.6253 30.9816C57.6493 30.9996 57.6794 31.0167 57.7154 31.0338C57.7505 31.0508 57.7906 31.0689 57.8346 31.0869C57.8957 31.112 57.9488 31.1391 57.9979 31.1672C58.0459 31.1953 58.087 31.2275 58.121 31.2636C58.1551 31.2997 58.1821 31.3409 58.2002 31.387C58.2182 31.4322 58.2272 31.4864 58.2272 31.5476C58.2272 31.6319 58.2112 31.7032 58.1791 31.7604C58.1471 31.8176 58.104 31.8647 58.0489 31.8999C57.9939 31.935 57.9308 31.9611 57.8577 31.9772C57.7845 31.9922 57.7074 32.0002 57.6273 32.0002C57.5472 32.0002 57.4661 31.9932 57.391 31.9792C57.3159 31.9651 57.2508 31.944 57.1967 31.9159H57.1957Z" fill="#FEC80A"/>
<path fill-rule="evenodd" clip-rule="evenodd" d="M49.2837 19.771C49.2837 24.8382 45.1846 28.945 40.1281 28.945H30.5859V21.6076H39.3009C41.3699 21.5323 41.7405 19.7278 41.6463 18.8075C41.416 16.5614 38.2623 14.1517 36.705 12.6172C34.5208 10.4655 32.4357 8.00863 32.2093 4.72581C32.1292 3.74127 32.2404 2.832 32.5018 2H39.8837C37.1417 7.55299 49.2827 10.598 49.2827 19.771H49.2837Z" fill="white"/>
<path fill-rule="evenodd" clip-rule="evenodd" d="M28.2153 2L17.5485 15.4725L28.9394 28.945H20.1643L8.77344 15.4725L19.4403 2H28.2153Z" fill="white"/>
<path fill-rule="evenodd" clip-rule="evenodd" d="M0 15.4725L11.3919 28.945H0V15.4725L10.6668 2H0V15.4725Z" fill="white"/>
</g>
<path d="M76.4303 9.5L78.2463 3.74H79.6583L81.4743 9.5H80.4823L78.8343 4.332H79.0503L77.4223 9.5H76.4303ZM77.4423 8.252V7.352H80.4663V8.252H77.4423ZM82.1975 9.5V3.74H84.4815C84.8708 3.74 85.1895 3.81867 85.4375 3.976C85.6881 4.13067 85.8735 4.32933 85.9935 4.572C86.1161 4.81467 86.1775 5.06533 86.1775 5.324C86.1775 5.64133 86.1015 5.91067 85.9495 6.132C85.8001 6.35333 85.5961 6.50267 85.3375 6.58V6.38C85.7001 6.46267 85.9748 6.63467 86.1615 6.896C86.3508 7.15733 86.4455 7.45467 86.4455 7.788C86.4455 8.12933 86.3801 8.428 86.2495 8.684C86.1188 8.94 85.9241 9.14 85.6655 9.284C85.4095 9.428 85.0921 9.5 84.7135 9.5H82.1975ZM83.1735 8.592H84.5935C84.7615 8.592 84.9121 8.55867 85.0455 8.492C85.1788 8.42267 85.2828 8.32667 85.3575 8.204C85.4348 8.07867 85.4735 7.93067 85.4735 7.76C85.4735 7.60533 85.4401 7.46667 85.3735 7.344C85.3068 7.22133 85.2095 7.124 85.0815 7.052C84.9535 6.97733 84.8001 6.94 84.6215 6.94H83.1735V8.592ZM83.1735 6.04H84.4695C84.6081 6.04 84.7321 6.01333 84.8415 5.96C84.9508 5.90667 85.0375 5.828 85.1015 5.724C85.1655 5.62 85.1975 5.492 85.1975 5.34C85.1975 5.14 85.1335 4.97333 85.0055 4.84C84.8775 4.70667 84.6988 4.64 84.4695 4.64H83.1735V6.04ZM88.4721 9.5V4.644H86.6081V3.74H91.3001V4.644H89.4361V9.5H88.4721ZM94.3756 9.62C93.7996 9.62 93.3063 9.49467 92.8956 9.244C92.485 8.99067 92.169 8.63867 91.9476 8.188C91.729 7.73733 91.6196 7.21467 91.6196 6.62C91.6196 6.02533 91.729 5.50267 91.9476 5.052C92.169 4.60133 92.485 4.25067 92.8956 4C93.3063 3.74667 93.7996 3.62 94.3756 3.62C94.9516 3.62 95.445 3.74667 95.8556 4C96.269 4.25067 96.585 4.60133 96.8036 5.052C97.025 5.50267 97.1356 6.02533 97.1356 6.62C97.1356 7.21467 97.025 7.73733 96.8036 8.188C96.585 8.63867 96.269 8.99067 95.8556 9.244C95.445 9.49467 94.9516 9.62 94.3756 9.62ZM94.3756 8.712C94.7623 8.71467 95.0836 8.62933 95.3396 8.456C95.5983 8.28267 95.7916 8.03867 95.9196 7.724C96.0503 7.40933 96.1156 7.04133 96.1156 6.62C96.1156 6.19867 96.0503 5.83333 95.9196 5.524C95.7916 5.212 95.5983 4.96933 95.3396 4.796C95.0836 4.62267 94.7623 4.53333 94.3756 4.528C93.989 4.52533 93.6676 4.61067 93.4116 4.784C93.1556 4.95733 92.9623 5.20133 92.8316 5.516C92.7036 5.83067 92.6396 6.19867 92.6396 6.62C92.6396 7.04133 92.7036 7.408 92.8316 7.72C92.9596 8.02933 93.1516 8.27067 93.4076 8.444C93.6663 8.61733 93.989 8.70667 94.3756 8.712ZM99.9718 9.62C99.5665 9.62 99.2118 9.56133 98.9078 9.444C98.6065 9.324 98.3532 9.17067 98.1478 8.984C97.9452 8.79467 97.7892 8.596 97.6798 8.388L98.5038 7.828C98.5678 7.97467 98.6612 8.116 98.7838 8.252C98.9065 8.38533 99.0678 8.496 99.2678 8.584C99.4678 8.66933 99.7158 8.712 100.012 8.712C100.297 8.712 100.53 8.66933 100.712 8.584C100.893 8.49867 101.026 8.38667 101.112 8.248C101.197 8.10933 101.24 7.95867 101.24 7.796C101.24 7.59333 101.184 7.43733 101.072 7.328C100.96 7.216 100.813 7.13867 100.632 7.096C100.45 7.05067 100.257 7.02533 100.052 7.02C99.8652 7.01467 99.7305 7.01067 99.6478 7.008C99.5652 7.00533 99.5105 7.004 99.4838 7.004C99.4572 7.004 99.4318 7.004 99.4078 7.004V6.092C99.4372 6.092 99.4865 6.092 99.5558 6.092C99.6278 6.092 99.7012 6.092 99.7758 6.092C99.8532 6.08933 99.9158 6.08667 99.9638 6.084C100.268 6.07067 100.517 6 100.712 5.872C100.909 5.744 101.008 5.55467 101.008 5.304C101.008 5.06133 100.916 4.87067 100.732 4.732C100.55 4.59333 100.309 4.524 100.008 4.524C99.7252 4.524 99.4758 4.58667 99.2598 4.712C99.0465 4.83733 98.8852 4.98533 98.7758 5.156L98.0998 4.468C98.2945 4.23067 98.5585 4.03067 98.8918 3.868C99.2278 3.70267 99.6092 3.62 100.036 3.62C100.286 3.62 100.53 3.65333 100.768 3.72C101.005 3.784 101.218 3.88267 101.408 4.016C101.597 4.14933 101.748 4.32 101.86 4.528C101.972 4.736 102.028 4.984 102.028 5.272C102.028 5.536 101.977 5.78 101.876 6.004C101.777 6.22533 101.638 6.40667 101.46 6.548C101.713 6.64933 101.909 6.804 102.048 7.012C102.189 7.22 102.26 7.48267 102.26 7.8C102.26 8.17333 102.158 8.496 101.956 8.768C101.753 9.04 101.478 9.25067 101.132 9.4C100.788 9.54667 100.401 9.62 99.9718 9.62ZM102.727 9.5L104.543 3.74H105.955L107.771 9.5H106.779L105.131 4.332H105.347L103.719 9.5H102.727ZM103.739 8.252V7.352H106.763V8.252H103.739ZM108.494 9.5V3.74H113.162V9.5H112.198V4.644H109.458V9.5H108.494ZM117.603 9.5V6.94L117.759 7.188C117.602 7.31867 117.389 7.42133 117.119 7.496C116.85 7.568 116.563 7.604 116.259 7.604C115.774 7.604 115.387 7.50933 115.099 7.32C114.811 7.13067 114.603 6.86933 114.475 6.536C114.347 6.20267 114.283 5.81733 114.283 5.38V3.74H115.259V5.084C115.259 5.28133 115.27 5.476 115.291 5.668C115.315 5.85733 115.366 6.02933 115.443 6.184C115.523 6.33867 115.645 6.46267 115.807 6.556C115.97 6.64667 116.19 6.692 116.467 6.692C116.777 6.692 117.041 6.64 117.259 6.536C117.478 6.432 117.633 6.32133 117.723 6.204L117.603 6.688V3.74H118.571V9.5H117.603ZM119.29 9.5L121.106 3.74H122.518L124.334 9.5H123.342L121.694 4.332H121.91L120.282 9.5H119.29ZM120.302 8.252V7.352H123.326V8.252H120.302ZM127.337 9.62C126.761 9.62 126.267 9.49467 125.857 9.244C125.446 8.99067 125.13 8.63867 124.909 8.188C124.69 7.73733 124.581 7.21467 124.581 6.62C124.581 6.02533 124.69 5.50267 124.909 5.052C125.13 4.60133 125.446 4.25067 125.857 4C126.267 3.74667 126.761 3.62 127.337 3.62C128.001 3.62 128.554 3.78667 128.997 4.12C129.439 4.45067 129.75 4.89733 129.929 5.46L128.957 5.728C128.845 5.352 128.654 5.05867 128.385 4.848C128.115 4.63467 127.766 4.528 127.337 4.528C126.95 4.528 126.627 4.61467 126.369 4.788C126.113 4.96133 125.919 5.20533 125.789 5.52C125.661 5.832 125.595 6.19867 125.593 6.62C125.593 7.04133 125.657 7.40933 125.785 7.724C125.915 8.036 126.11 8.27867 126.369 8.452C126.627 8.62533 126.95 8.712 127.337 8.712C127.766 8.712 128.115 8.60533 128.385 8.392C128.654 8.17867 128.845 7.88533 128.957 7.512L129.929 7.78C129.75 8.34267 129.439 8.79067 128.997 9.124C128.554 9.45467 128.001 9.62 127.337 9.62ZM132.191 9.5V4.644H130.327V3.74H135.019V4.644H133.155V9.5H132.191ZM140.282 9.5H139.306V5.44L136.634 9.5H135.658V3.74H136.634V7.8L139.306 3.74H140.282V9.5ZM76.5223 21.46V19.596C76.7089 19.596 76.8649 19.5493 76.9903 19.456C77.1156 19.3627 77.2156 19.2333 77.2903 19.068C77.3676 18.9027 77.4276 18.7107 77.4703 18.492C77.5129 18.2707 77.5463 18.036 77.5703 17.788C77.5996 17.46 77.6249 17.1387 77.6463 16.824C77.6676 16.5067 77.6876 16.1787 77.7063 15.84C77.7276 15.4987 77.7516 15.1293 77.7783 14.732L81.5343 14.74V19.596H81.9663V21.46H81.0063V20.5H77.4863V21.46H76.5223ZM78.0223 19.596H80.5703V15.644L78.6583 15.636C78.6396 15.916 78.6236 16.1773 78.6103 16.42C78.5996 16.66 78.5849 16.904 78.5663 17.152C78.5503 17.4 78.5276 17.6707 78.4983 17.964C78.4716 18.252 78.4423 18.492 78.4103 18.684C78.3809 18.876 78.3369 19.0427 78.2783 19.184C78.2196 19.3227 78.1343 19.46 78.0223 19.596ZM82.4459 20.5V19.692C82.5739 19.7 82.6819 19.6907 82.7699 19.664C82.8579 19.6347 82.9312 19.58 82.9899 19.5C83.0512 19.4173 83.1046 19.3013 83.1499 19.152C83.1952 19 83.2392 18.8093 83.2819 18.58C83.3432 18.252 83.3939 17.9107 83.4339 17.556C83.4766 17.1987 83.5126 16.848 83.5419 16.504C83.5712 16.1573 83.5939 15.832 83.6099 15.528C83.6259 15.224 83.6392 14.9613 83.6499 14.74H87.5059V20.5H86.5419V15.644H84.5419C84.5286 15.8227 84.5126 16.0387 84.4939 16.292C84.4779 16.5427 84.4552 16.8147 84.4259 17.108C84.3992 17.4013 84.3646 17.7053 84.3219 18.02C84.2819 18.3347 84.2326 18.644 84.1739 18.948C84.1206 19.2253 84.0566 19.4747 83.9819 19.696C83.9072 19.9147 83.8072 20.096 83.6819 20.24C83.5592 20.3813 83.3979 20.476 83.1979 20.524C83.0006 20.572 82.7499 20.564 82.4459 20.5ZM92.7871 20.5H91.8231V18.488H90.3391L89.9271 18.452C89.4365 18.372 89.0725 18.164 88.8351 17.828C88.5978 17.4893 88.4791 17.0853 88.4791 16.616C88.4791 16.2987 88.5311 16.0107 88.6351 15.752C88.7418 15.4907 88.9031 15.2747 89.1191 15.104C89.3378 14.9333 89.6138 14.8227 89.9471 14.772C90.0218 14.7587 90.1031 14.7507 90.1911 14.748C90.2791 14.7427 90.3511 14.74 90.4071 14.74H92.7871V20.5ZM89.4791 20.5H88.3871L89.6351 17.94L90.6151 18.156L89.4791 20.5ZM91.8231 17.588V15.644H90.4471C90.3938 15.644 90.3338 15.6467 90.2671 15.652C90.2005 15.6547 90.1391 15.664 90.0831 15.68C89.9231 15.72 89.7965 15.7907 89.7031 15.892C89.6125 15.9933 89.5471 16.1093 89.5071 16.24C89.4698 16.368 89.4511 16.4933 89.4511 16.616C89.4511 16.7387 89.4698 16.864 89.5071 16.992C89.5471 17.12 89.6125 17.2347 89.7031 17.336C89.7965 17.4373 89.9231 17.508 90.0831 17.548C90.1391 17.564 90.2005 17.5747 90.2671 17.58C90.3338 17.5853 90.3938 17.588 90.4471 17.588H91.8231ZM95.51 20.5V14.74H96.474V17.412L98.774 14.74H99.958L97.482 17.564L100.126 20.5H98.902L96.474 17.812V20.5H95.51ZM102.821 20.62C102.245 20.62 101.752 20.4947 101.341 20.244C100.93 19.9907 100.614 19.6387 100.393 19.188C100.174 18.7373 100.065 18.2147 100.065 17.62C100.065 17.0253 100.174 16.5027 100.393 16.052C100.614 15.6013 100.93 15.2507 101.341 15C101.752 14.7467 102.245 14.62 102.821 14.62C103.397 14.62 103.89 14.7467 104.301 15C104.714 15.2507 105.03 15.6013 105.249 16.052C105.47 16.5027 105.581 17.0253 105.581 17.62C105.581 18.2147 105.47 18.7373 105.249 19.188C105.03 19.6387 104.714 19.9907 104.301 20.244C103.89 20.4947 103.397 20.62 102.821 20.62ZM102.821 19.712C103.208 19.7147 103.529 19.6293 103.785 19.456C104.044 19.2827 104.237 19.0387 104.365 18.724C104.496 18.4093 104.561 18.0413 104.561 17.62C104.561 17.1987 104.496 16.8333 104.365 16.524C104.237 16.212 104.044 15.9693 103.785 15.796C103.529 15.6227 103.208 15.5333 102.821 15.528C102.434 15.5253 102.113 15.6107 101.857 15.784C101.601 15.9573 101.408 16.2013 101.277 16.516C101.149 16.8307 101.085 17.1987 101.085 17.62C101.085 18.0413 101.149 18.408 101.277 18.72C101.405 19.0293 101.597 19.2707 101.853 19.444C102.112 19.6173 102.434 19.7067 102.821 19.712ZM106.377 20.5V14.74H108.757C108.813 14.74 108.885 14.7427 108.973 14.748C109.061 14.7507 109.142 14.7587 109.217 14.772C109.55 14.8227 109.825 14.9333 110.041 15.104C110.26 15.2747 110.421 15.4907 110.525 15.752C110.632 16.0107 110.685 16.2987 110.685 16.616C110.685 16.9307 110.632 17.2187 110.525 17.48C110.418 17.7387 110.256 17.9533 110.037 18.124C109.821 18.2947 109.548 18.4053 109.217 18.456C109.142 18.4667 109.06 18.4747 108.969 18.48C108.881 18.4853 108.81 18.488 108.757 18.488H107.341V20.5H106.377ZM107.341 17.588H108.717C108.77 17.588 108.83 17.5853 108.897 17.58C108.964 17.5747 109.025 17.564 109.081 17.548C109.241 17.508 109.366 17.4373 109.457 17.336C109.55 17.2347 109.616 17.12 109.653 16.992C109.693 16.864 109.713 16.7387 109.713 16.616C109.713 16.4933 109.693 16.368 109.653 16.24C109.616 16.1093 109.55 15.9933 109.457 15.892C109.366 15.7907 109.241 15.72 109.081 15.68C109.025 15.664 108.964 15.6547 108.897 15.652C108.83 15.6467 108.77 15.644 108.717 15.644H107.341V17.588ZM111.487 20.5V14.74H115.207V15.644H112.451V17.064H114.727V17.968H112.451V19.596H115.207V20.5H111.487ZM116.166 20.5V14.74H117.142V18.8L119.814 14.74H120.79V20.5H119.814V16.44L117.142 20.5H116.166ZM118.474 14.252C118.25 14.252 118.046 14.1973 117.862 14.088C117.681 13.9787 117.536 13.8333 117.426 13.652C117.317 13.468 117.262 13.264 117.262 13.04H118.014C118.014 13.168 118.058 13.2773 118.146 13.368C118.237 13.456 118.346 13.5 118.474 13.5C118.602 13.5 118.71 13.456 118.798 13.368C118.889 13.2773 118.934 13.168 118.934 13.04H119.686C119.686 13.264 119.632 13.468 119.522 13.652C119.413 13.8333 119.266 13.9787 119.082 14.088C118.898 14.1973 118.696 14.252 118.474 14.252ZM124.344 20.62C123.768 20.62 123.275 20.4947 122.864 20.244C122.454 19.9907 122.138 19.6387 121.916 19.188C121.698 18.7373 121.588 18.2147 121.588 17.62C121.588 17.0253 121.698 16.5027 121.916 16.052C122.138 15.6013 122.454 15.2507 122.864 15C123.275 14.7467 123.768 14.62 124.344 14.62C125.008 14.62 125.562 14.7867 126.004 15.12C126.447 15.4507 126.758 15.8973 126.936 16.46L125.964 16.728C125.852 16.352 125.662 16.0587 125.392 15.848C125.123 15.6347 124.774 15.528 124.344 15.528C123.958 15.528 123.635 15.6147 123.376 15.788C123.12 15.9613 122.927 16.2053 122.796 16.52C122.668 16.832 122.603 17.1987 122.6 17.62C122.6 18.0413 122.664 18.4093 122.792 18.724C122.923 19.036 123.118 19.2787 123.376 19.452C123.635 19.6253 123.958 19.712 124.344 19.712C124.774 19.712 125.123 19.6053 125.392 19.392C125.662 19.1787 125.852 18.8853 125.964 18.512L126.936 18.78C126.758 19.3427 126.447 19.7907 126.004 20.124C125.562 20.4547 125.008 20.62 124.344 20.62ZM127.815 20.5V14.74H128.779V17.412L131.079 14.74H132.263L129.787 17.564L132.431 20.5H131.207L128.779 17.812V20.5H127.815ZM137.618 20.5H136.642V16.44L133.97 20.5H132.994V14.74H133.97V18.8L136.642 14.74H137.618V20.5ZM138.257 20.5L140.209 17.588L138.313 14.74H139.493L140.805 16.768L142.105 14.74H143.293L141.397 17.588L143.341 20.5H142.161L140.805 18.408L139.445 20.5H138.257ZM76.4303 31.5L78.2463 25.74H79.6583L81.4743 31.5H80.4823L78.8343 26.332H79.0503L77.4223 31.5H76.4303ZM77.4423 30.252V29.352H80.4663V30.252H77.4423ZM82.1975 31.5V25.74H84.4815C84.8708 25.74 85.1895 25.8187 85.4375 25.976C85.6881 26.1307 85.8735 26.3293 85.9935 26.572C86.1161 26.8147 86.1775 27.0653 86.1775 27.324C86.1775 27.6413 86.1015 27.9107 85.9495 28.132C85.8001 28.3533 85.5961 28.5027 85.3375 28.58V28.38C85.7001 28.4627 85.9748 28.6347 86.1615 28.896C86.3508 29.1573 86.4455 29.4547 86.4455 29.788C86.4455 30.1293 86.3801 30.428 86.2495 30.684C86.1188 30.94 85.9241 31.14 85.6655 31.284C85.4095 31.428 85.0921 31.5 84.7135 31.5H82.1975ZM83.1735 30.592H84.5935C84.7615 30.592 84.9121 30.5587 85.0455 30.492C85.1788 30.4227 85.2828 30.3267 85.3575 30.204C85.4348 30.0787 85.4735 29.9307 85.4735 29.76C85.4735 29.6053 85.4401 29.4667 85.3735 29.344C85.3068 29.2213 85.2095 29.124 85.0815 29.052C84.9535 28.9773 84.8001 28.94 84.6215 28.94H83.1735V30.592ZM83.1735 28.04H84.4695C84.6081 28.04 84.7321 28.0133 84.8415 27.96C84.9508 27.9067 85.0375 27.828 85.1015 27.724C85.1655 27.62 85.1975 27.492 85.1975 27.34C85.1975 27.14 85.1335 26.9733 85.0055 26.84C84.8775 26.7067 84.6988 26.64 84.4695 26.64H83.1735V28.04ZM88.4721 31.5V26.644H86.6081V25.74H91.3001V26.644H89.4361V31.5H88.4721ZM94.3756 31.62C93.7996 31.62 93.3063 31.4947 92.8956 31.244C92.485 30.9907 92.169 30.6387 91.9476 30.188C91.729 29.7373 91.6196 29.2147 91.6196 28.62C91.6196 28.0253 91.729 27.5027 91.9476 27.052C92.169 26.6013 92.485 26.2507 92.8956 26C93.3063 25.7467 93.7996 25.62 94.3756 25.62C94.9516 25.62 95.445 25.7467 95.8556 26C96.269 26.2507 96.585 26.6013 96.8036 27.052C97.025 27.5027 97.1356 28.0253 97.1356 28.62C97.1356 29.2147 97.025 29.7373 96.8036 30.188C96.585 30.6387 96.269 30.9907 95.8556 31.244C95.445 31.4947 94.9516 31.62 94.3756 31.62ZM94.3756 30.712C94.7623 30.7147 95.0836 30.6293 95.3396 30.456C95.5983 30.2827 95.7916 30.0387 95.9196 29.724C96.0503 29.4093 96.1156 29.0413 96.1156 28.62C96.1156 28.1987 96.0503 27.8333 95.9196 27.524C95.7916 27.212 95.5983 26.9693 95.3396 26.796C95.0836 26.6227 94.7623 26.5333 94.3756 26.528C93.989 26.5253 93.6676 26.6107 93.4116 26.784C93.1556 26.9573 92.9623 27.2013 92.8316 27.516C92.7036 27.8307 92.6396 28.1987 92.6396 28.62C92.6396 29.0413 92.7036 29.408 92.8316 29.72C92.9596 30.0293 93.1516 30.2707 93.4076 30.444C93.6663 30.6173 93.989 30.7067 94.3756 30.712ZM97.9318 31.5V25.74H98.7998L100.792 29.82L102.784 25.74H103.652V31.5H102.752V27.808L100.984 31.5H100.6L98.8358 27.808V31.5H97.9318ZM107.212 31.62C106.636 31.62 106.142 31.4947 105.732 31.244C105.321 30.9907 105.005 30.6387 104.784 30.188C104.565 29.7373 104.456 29.2147 104.456 28.62C104.456 28.0253 104.565 27.5027 104.784 27.052C105.005 26.6013 105.321 26.2507 105.732 26C106.142 25.7467 106.636 25.62 107.212 25.62C107.788 25.62 108.281 25.7467 108.692 26C109.105 26.2507 109.421 26.6013 109.64 27.052C109.861 27.5027 109.972 28.0253 109.972 28.62C109.972 29.2147 109.861 29.7373 109.64 30.188C109.421 30.6387 109.105 30.9907 108.692 31.244C108.281 31.4947 107.788 31.62 107.212 31.62ZM107.212 30.712C107.598 30.7147 107.92 30.6293 108.176 30.456C108.434 30.2827 108.628 30.0387 108.756 29.724C108.886 29.4093 108.952 29.0413 108.952 28.62C108.952 28.1987 108.886 27.8333 108.756 27.524C108.628 27.212 108.434 26.9693 108.176 26.796C107.92 26.6227 107.598 26.5333 107.212 26.528C106.825 26.5253 106.504 26.6107 106.248 26.784C105.992 26.9573 105.798 27.2013 105.668 27.516C105.54 27.8307 105.476 28.1987 105.476 28.62C105.476 29.0413 105.54 29.408 105.668 29.72C105.796 30.0293 105.988 30.2707 106.244 30.444C106.502 30.6173 106.825 30.7067 107.212 30.712ZM110.768 31.5V25.74H114.62V26.644H111.732V27.884H113.148C113.201 27.884 113.272 27.8867 113.36 27.892C113.45 27.8947 113.533 27.9 113.608 27.908C113.93 27.9453 114.2 28.048 114.416 28.216C114.634 28.384 114.798 28.596 114.908 28.852C115.02 29.108 115.076 29.388 115.076 29.692C115.076 29.996 115.021 30.2773 114.912 30.536C114.802 30.792 114.638 31.004 114.42 31.172C114.204 31.3373 113.933 31.4387 113.608 31.476C113.533 31.484 113.452 31.4907 113.364 31.496C113.276 31.4987 113.204 31.5 113.148 31.5H110.768ZM111.732 30.596H113.108C113.161 30.596 113.221 30.5933 113.288 30.588C113.354 30.5827 113.416 30.5747 113.472 30.564C113.712 30.5133 113.877 30.4013 113.968 30.228C114.058 30.0547 114.104 29.876 114.104 29.692C114.104 29.5053 114.058 29.3267 113.968 29.156C113.877 28.9827 113.712 28.8707 113.472 28.82C113.416 28.8067 113.354 28.7987 113.288 28.796C113.221 28.7907 113.161 28.788 113.108 28.788H111.732V30.596ZM120.501 31.5H119.525V27.44L116.853 31.5H115.877V25.74H116.853V29.8L119.525 25.74H120.501V31.5ZM121.219 31.5V30.692C121.347 30.7 121.455 30.6907 121.543 30.664C121.631 30.6347 121.705 30.58 121.763 30.5C121.825 30.4173 121.878 30.3013 121.923 30.152C121.969 30 122.013 29.8093 122.055 29.58C122.117 29.252 122.167 28.9107 122.207 28.556C122.25 28.1987 122.286 27.848 122.315 27.504C122.345 27.1573 122.367 26.832 122.383 26.528C122.399 26.224 122.413 25.9613 122.423 25.74H126.279V31.5H125.315V26.644H123.315C123.302 26.8227 123.286 27.0387 123.267 27.292C123.251 27.5427 123.229 27.8147 123.199 28.108C123.173 28.4013 123.138 28.7053 123.095 29.02C123.055 29.3347 123.006 29.644 122.947 29.948C122.894 30.2253 122.83 30.4747 122.755 30.696C122.681 30.9147 122.581 31.096 122.455 31.24C122.333 31.3813 122.171 31.476 121.971 31.524C121.774 31.572 121.523 31.564 121.219 31.5ZM127.401 31.5V25.74H131.121V26.644H128.365V28.064H130.641V28.968H128.365V30.596H131.121V31.5H127.401ZM132.08 31.5V25.74H133.056V29.8L135.728 25.74H136.704V31.5H135.728V27.44L133.056 31.5H132.08ZM134.388 25.252C134.164 25.252 133.96 25.1973 133.776 25.088C133.595 24.9787 133.45 24.8333 133.34 24.652C133.231 24.468 133.176 24.264 133.176 24.04H133.928C133.928 24.168 133.972 24.2773 134.06 24.368C134.151 24.456 134.26 24.5 134.388 24.5C134.516 24.5 134.624 24.456 134.712 24.368C134.803 24.2773 134.848 24.168 134.848 24.04H135.6C135.6 24.264 135.546 24.468 135.436 24.652C135.327 24.8333 135.18 24.9787 134.996 25.088C134.812 25.1973 134.61 25.252 134.388 25.252Z" fill="white"/>
<defs>
<clipPath id="clip0_235_292">
<rect width="70.2703" height="30" fill="white" transform="translate(0 2)"/>
</clipPath>
</defs>
</svg>
