<svg width="17" height="17" viewBox="0 0 17 17" fill="none" xmlns="http://www.w3.org/2000/svg">
<circle cx="8.10693" cy="8.12793" r="8" fill="white"/>
<path d="M6.22051 9.56388L6.08727 9.60276L6.12158 9.73725C6.2008 10.0478 6.33261 10.3252 6.51778 10.5676C6.7028 10.8098 6.92761 11.0009 7.19156 11.1393C7.45791 11.2789 7.74771 11.3482 8.05857 11.3482C8.43109 11.3482 8.7739 11.2484 9.08355 11.0491C9.38973 10.852 9.63509 10.5904 9.81891 10.2666L9.81918 10.2661C10.0045 9.93665 10.0967 9.57453 10.0967 9.18265C10.0967 8.78974 10.0105 8.42972 9.83591 8.10564C9.66255 7.78385 9.42708 7.52666 9.12984 7.33707C8.82986 7.14291 8.49337 7.04635 8.12429 7.04635C7.85203 7.04635 7.59194 7.10733 7.34561 7.22857C7.27943 7.26114 7.21587 7.29713 7.15492 7.33653L7.2424 5.78467H9.56255H9.70618V5.64105V5.05078V4.90716H9.56255H6.58938H6.45334L6.44597 5.043L6.27585 8.17853L6.27053 8.27665L6.36005 8.31716L6.87813 8.55159L6.99412 8.60408L7.06014 8.49522C7.06989 8.47916 7.07995 8.46335 7.09034 8.4478L7.09214 8.45038L7.09246 8.44463C7.19013 8.29936 7.31593 8.17686 7.47131 8.07682L7.47131 8.07683L7.47255 8.07602C7.63644 7.9681 7.83484 7.9113 8.07403 7.9113C8.28136 7.9113 8.47125 7.96636 8.64677 8.07743C8.82417 8.18968 8.96778 8.34203 9.07788 8.53732L9.07788 8.53732L9.07828 8.53802C9.18598 8.7266 9.24108 8.9403 9.24108 9.18265C9.24108 9.41686 9.18843 9.62906 9.08434 9.82192C8.97932 10.0165 8.83816 10.1715 8.66008 10.2893C8.48899 10.4013 8.29507 10.4582 8.07403 10.4582C7.90603 10.4582 7.74485 10.4203 7.58896 10.3434C7.43537 10.2664 7.30044 10.1582 7.18386 10.0169C7.07033 9.87662 6.99052 9.70901 6.94601 9.51115L6.91245 9.36196L6.76566 9.4048L6.22051 9.56388Z" fill="black" stroke="black" stroke-width="0.287241"/>
</svg>
