
<svg width="294" height="57" viewBox="0 0 294 57" fill="none" xmlns="http://www.w3.org/2000/svg">
<g clip-path="url(#clip0_1_531)">
<path fill-rule="evenodd" clip-rule="evenodd" d="M126.648 1.30526C128.652 1.46433 130.547 1.96016 132.285 2.73282C129.737 3.98685 127.29 5.64786 125.529 7.90387L125.315 8.17864C123.888 8.17038 122.435 8.46168 121.049 9.08559C120.75 9.21988 120.464 9.36449 120.185 9.52151C120.354 6.80479 121.381 4.15419 122.674 1.78662L122.876 1.41682C124.102 1.24534 125.364 1.20196 126.648 1.30526ZM119.855 38.4591V56.7076H104.783V20.4772C105.581 29.086 111.675 36.2279 119.855 38.4591ZM104.783 16.6366V1.24121H114.081C108.935 4.59217 105.377 10.1826 104.783 16.6366ZM142.018 22.758L144.656 23.1939L144.267 26.1482C144.09 27.4973 144.075 27.6708 143.391 28.8794C140.306 34.3252 134.903 38.1141 128.739 39.1657C127.749 39.3351 127.632 39.2979 126.663 39.1079L123.034 38.4633L123.389 35.79C123.886 32.9493 130.161 30.8255 132.668 29.0405C135.194 27.2411 138.847 22.3345 142.018 22.758ZM121.777 10.7136C126.098 8.77363 131.17 10.7115 133.105 15.0396C135.041 19.3699 133.109 24.4521 128.788 26.392C124.467 28.3319 119.398 26.3941 117.46 22.0659C115.524 17.7378 117.456 12.6535 121.777 10.7136ZM128.287 25.2743C127.665 25.5532 126.933 25.2743 126.655 24.6504C126.376 24.0265 126.655 23.2951 127.277 23.0162C127.9 22.7353 128.632 23.0162 128.91 23.6402C129.188 24.2641 128.91 24.9954 128.287 25.2743ZM123.286 14.0914C122.663 14.3703 121.932 14.0914 121.653 13.4675C121.373 12.8435 121.653 12.1122 122.276 11.8312C122.898 11.5523 123.63 11.8312 123.909 12.4551C124.189 13.0791 123.909 13.8125 123.286 14.0914ZM120.206 22.1878C119.583 22.4688 118.852 22.1899 118.573 21.5659C118.293 20.942 118.573 20.2086 119.196 19.9297C119.818 19.6488 120.55 19.9297 120.829 20.5516C121.107 21.1755 120.829 21.9089 120.206 22.1878ZM131.365 17.1779C130.743 17.4568 130.011 17.1779 129.733 16.554C129.452 15.9301 129.733 15.1987 130.355 14.9177C130.978 14.6388 131.71 14.9177 131.988 15.5417C132.268 16.1656 131.988 16.8969 131.367 17.1779H131.365ZM123.785 15.209C125.63 14.3806 127.793 15.209 128.619 17.0539C129.446 18.9029 128.619 21.0701 126.778 21.8986C124.935 22.7249 122.771 21.8986 121.946 20.0516C121.119 18.2047 121.946 16.0375 123.787 15.209H123.785ZM133.373 3.26377C136.293 4.81736 138.694 7.17873 140.309 10.0297C137.525 9.52564 134.581 9.40994 131.84 10.1764L131.512 10.2673C130.04 9.15997 128.296 8.46168 126.469 8.24682C128.195 6.14162 130.58 4.59837 133.011 3.43731L133.371 3.26377H133.373ZM140.867 11.104C142.133 13.7608 142.741 16.775 142.492 19.9215C142.473 20.1466 142.453 20.3677 142.426 20.5888C140.48 18.5476 138.179 16.7254 135.524 15.7276L135.208 15.6078C135.078 15.1719 134.92 14.738 134.728 14.3104C134.155 13.0295 133.353 11.9221 132.394 11.0131C135.029 10.3458 137.863 10.5214 140.506 11.0338L140.867 11.104ZM142.244 21.7849L142.236 21.8304L142.152 21.8159H142.135C140.034 21.537 137.983 23.0493 136.478 24.3426C136.445 24.3694 136.414 24.3984 136.383 24.4252C136.06 23.6815 135.68 22.9605 135.237 22.2828L135.047 21.9874C135.631 20.3284 135.794 18.5166 135.474 16.7275C138 17.746 140.185 19.564 142.022 21.5432L142.244 21.7849ZM135.635 25.0966C135.115 25.5739 134.606 26.0635 134.093 26.549C133.472 27.1357 132.808 27.77 132.114 28.2658C131.786 28.4972 131.4 28.7327 130.974 28.9744C131.087 28.46 131.174 27.9394 131.229 27.4146L131.273 27.018C132.728 25.985 133.858 24.6111 134.604 23.0596C135.004 23.7083 135.344 24.3922 135.635 25.0987V25.0966ZM129.844 29.5818C126.865 31.1313 122.921 32.9493 122.451 35.6226C120.921 35.3706 119.464 34.9181 118.107 34.2963C120.631 33.0588 123.053 31.4184 124.803 29.1934L125.014 28.9269C126.516 28.9682 128.052 28.679 129.516 28.022C129.766 27.9105 130.011 27.7886 130.246 27.6584C130.159 28.3071 130.021 28.9496 129.844 29.5818ZM117.029 33.755C114.203 32.2138 111.871 29.9082 110.288 27.1378C113.046 27.5882 115.949 27.6543 118.645 26.863L118.959 26.7701C120.392 27.8733 122.088 28.584 123.871 28.8319C122.136 30.9371 119.74 32.4741 117.299 33.6269L117.029 33.755ZM109.729 26.0738C108.438 23.4005 107.818 20.3594 108.069 17.1861C108.084 17.0105 108.1 16.8391 108.119 16.6676C110.084 18.6778 112.397 20.4627 115.054 21.4275L115.367 21.5412C115.495 21.9647 115.65 22.382 115.833 22.7952C116.394 24.0471 117.169 25.1318 118.099 26.0263C115.466 26.7329 112.625 26.5944 109.968 26.1151L109.729 26.0718V26.0738ZM108.29 15.4714C108.871 12.2258 110.345 9.32111 112.432 6.99486C112.863 9.77562 113.704 12.5791 115.301 14.9136L115.489 15.1884C114.922 16.8453 114.77 18.6488 115.095 20.4276C112.56 19.438 110.349 17.6448 108.492 15.6863L108.29 15.4714ZM113.267 6.12716C115.563 3.89801 118.468 2.31343 121.678 1.62754C120.342 4.14386 119.326 6.93288 119.218 9.80041L119.206 10.1496C117.765 11.1949 116.65 12.5729 115.92 14.1286C114.431 11.8416 113.679 9.09386 113.306 6.41639L113.267 6.12716Z" fill="#FEC80A"/>
<path fill-rule="evenodd" clip-rule="evenodd" d="M101.451 37.8228C101.451 48.2538 93.0127 56.7076 82.6038 56.7076H62.9609V41.6035H80.9009C85.1601 41.4486 85.9229 37.734 85.7291 35.8395C85.255 31.216 78.763 26.2556 75.5573 23.0968C71.0609 18.6674 66.7687 13.61 66.3028 6.85231C66.1378 4.82562 66.3667 2.95388 66.9048 1.24121H82.1007C76.4561 12.6721 101.449 18.9401 101.449 37.8228H101.451Z" fill="white"/>
<path fill-rule="evenodd" clip-rule="evenodd" d="M58.0861 1.24121L36.1281 28.9744L59.5766 56.7076H41.513L18.0645 28.9744L40.0225 1.24121H58.0861Z" fill="white"/>
<path fill-rule="evenodd" clip-rule="evenodd" d="M0 28.9744L23.4506 56.7076H0V28.9744L21.958 1.24121H0V28.9744Z" fill="white"/>
</g>
<path d="M160.822 16L163.992 5.62507H166.917L170.087 16H168.07L165.245 6.84989H165.62L162.839 16H160.822ZM162.724 13.8386V12.0085H168.199V13.8386H162.724ZM171.378 16V5.62507H175.528C176.268 5.62507 176.866 5.77397 177.322 6.07177C177.779 6.36476 178.112 6.73461 178.324 7.18131C178.535 7.62801 178.641 8.07951 178.641 8.53581C178.641 9.117 178.509 9.59972 178.244 9.98398C177.985 10.3682 177.627 10.6252 177.171 10.7549V10.3947C177.819 10.5291 178.304 10.8293 178.626 11.2953C178.953 11.7612 179.116 12.2823 179.116 12.8587C179.116 13.4783 179.001 14.0235 178.77 14.4942C178.545 14.9649 178.199 15.3348 177.733 15.6037C177.267 15.8679 176.681 16 175.975 16H171.378ZM173.367 14.1556H175.773C176.037 14.1556 176.273 14.1003 176.479 13.9899C176.686 13.8746 176.847 13.7161 176.962 13.5143C177.082 13.3078 177.142 13.0652 177.142 12.7867C177.142 12.5417 177.092 12.3231 176.991 12.131C176.89 11.9389 176.736 11.7876 176.53 11.6771C176.328 11.5618 176.076 11.5042 175.773 11.5042H173.367V14.1556ZM173.367 9.67417H175.499C175.72 9.67417 175.917 9.63575 176.09 9.5589C176.263 9.48205 176.4 9.36437 176.501 9.20586C176.602 9.04255 176.652 8.83361 176.652 8.57904C176.652 8.26203 176.554 7.99545 176.357 7.77931C176.16 7.56316 175.874 7.45509 175.499 7.45509H173.367V9.67417ZM182.678 16V7.45509H179.407V5.62507H187.909V7.45509H184.638V16H182.678ZM193.519 16.2161C192.482 16.2161 191.586 15.9904 190.832 15.5389C190.083 15.0874 189.504 14.4558 189.095 13.644C188.692 12.8323 188.49 11.8885 188.49 10.8125C188.49 9.73662 188.692 8.79278 189.095 7.98104C189.504 7.1693 190.083 6.53768 190.832 6.08618C191.586 5.63468 192.482 5.40892 193.519 5.40892C194.557 5.40892 195.45 5.63468 196.199 6.08618C196.954 6.53768 197.532 7.1693 197.936 7.98104C198.344 8.79278 198.548 9.73662 198.548 10.8125C198.548 11.8885 198.344 12.8323 197.936 13.644C197.532 14.4558 196.954 15.0874 196.199 15.5389C195.45 15.9904 194.557 16.2161 193.519 16.2161ZM193.519 14.3717C194.177 14.3813 194.725 14.2396 195.162 13.9466C195.599 13.6536 195.926 13.2382 196.142 12.7002C196.363 12.1622 196.473 11.533 196.473 10.8125C196.473 10.0921 196.363 9.46764 196.142 8.93928C195.926 8.41093 195.599 8.00026 195.162 7.70726C194.725 7.41426 194.177 7.26296 193.519 7.25336C192.861 7.24375 192.314 7.38544 191.877 7.67844C191.439 7.97144 191.11 8.38691 190.889 8.92487C190.673 9.46283 190.565 10.0921 190.565 10.8125C190.565 11.533 190.673 12.1574 190.889 12.6858C191.11 13.2141 191.439 13.6248 191.877 13.9178C192.314 14.2108 192.861 14.3621 193.519 14.3717ZM203.776 16.2161C203.041 16.2161 202.395 16.1081 201.838 15.8919C201.286 15.6758 200.82 15.3996 200.44 15.0634C200.061 14.7223 199.765 14.3669 199.554 13.9971L201.211 12.8443C201.327 13.0845 201.49 13.3222 201.701 13.5576C201.913 13.7929 202.194 13.9875 202.544 14.1412C202.895 14.2949 203.334 14.3717 203.863 14.3717C204.362 14.3717 204.763 14.2997 205.066 14.1556C205.373 14.0115 205.594 13.8265 205.729 13.6008C205.868 13.375 205.938 13.1373 205.938 12.8875C205.938 12.5561 205.839 12.3015 205.642 12.1238C205.45 11.9461 205.2 11.8236 204.893 11.7564C204.586 11.6843 204.261 11.6435 203.92 11.6339C203.589 11.6243 203.349 11.6171 203.2 11.6123C203.056 11.6075 202.957 11.6051 202.904 11.6051C202.856 11.6051 202.811 11.6051 202.767 11.6051V9.76063C202.83 9.76063 202.921 9.76063 203.041 9.76063C203.166 9.76063 203.291 9.76063 203.416 9.76063C203.546 9.75583 203.651 9.75103 203.733 9.74622C204.237 9.72221 204.658 9.61173 204.994 9.4148C205.335 9.21787 205.505 8.91046 205.505 8.49258C205.505 8.10833 205.354 7.80332 205.051 7.57757C204.754 7.35182 204.353 7.23895 203.848 7.23895C203.373 7.23895 202.948 7.34222 202.573 7.54875C202.203 7.75049 201.932 7.97384 201.759 8.2188L200.419 6.77784C200.779 6.40319 201.262 6.08137 201.867 5.81239C202.472 5.54341 203.152 5.40892 203.906 5.40892C204.362 5.40892 204.809 5.46896 205.246 5.58904C205.683 5.70432 206.077 5.88444 206.428 6.12941C206.778 6.36957 207.057 6.67937 207.263 7.05883C207.475 7.43828 207.58 7.89218 207.58 8.42054C207.58 8.86723 207.501 9.28992 207.343 9.68858C207.184 10.0824 206.956 10.4139 206.658 10.6828C207.09 10.875 207.424 11.1536 207.66 11.5186C207.895 11.8837 208.013 12.34 208.013 12.8875C208.013 13.5744 207.82 14.1676 207.436 14.6671C207.057 15.1618 206.545 15.5437 205.902 15.8127C205.263 16.0817 204.554 16.2161 203.776 16.2161ZM208.877 16L212.047 5.62507H214.972L218.142 16H216.125L213.301 6.84989H213.675L210.894 16H208.877ZM210.779 13.8386V12.0085H216.255V13.8386H210.779ZM219.434 16V5.62507H227.993V16H226.033V7.45509H221.394V16H219.434ZM235.909 16V11.4754L236.183 11.9221C235.919 12.1574 235.542 12.34 235.052 12.4696C234.567 12.5945 234.06 12.657 233.532 12.657C232.667 12.657 231.978 12.4865 231.464 12.1454C230.95 11.7996 230.58 11.3241 230.354 10.7189C230.129 10.1089 230.016 9.40519 230.016 8.60786V5.62507H232.004V8.01707C232.004 8.32928 232.016 8.64869 232.04 8.97531C232.064 9.30193 232.134 9.60453 232.249 9.88311C232.369 10.1617 232.566 10.3875 232.84 10.5604C233.114 10.7285 233.498 10.8125 233.993 10.8125C234.526 10.8125 234.978 10.7213 235.347 10.5388C235.717 10.3514 235.977 10.1545 236.126 9.94796L235.909 10.8269V5.62507H237.884V16H235.909ZM239.174 16L242.344 5.62507H245.269L248.439 16H246.422L243.598 6.84989H243.972L241.191 16H239.174ZM241.076 13.8386V12.0085H246.552V13.8386H241.076ZM253.902 16.2161C252.864 16.2161 251.968 15.9904 251.214 15.5389C250.465 15.0874 249.886 14.4558 249.478 13.644C249.075 12.8323 248.873 11.8885 248.873 10.8125C248.873 9.73662 249.075 8.79278 249.478 7.98104C249.886 7.1693 250.465 6.53768 251.214 6.08618C251.968 5.63468 252.864 5.40892 253.902 5.40892C255.093 5.40892 256.092 5.70432 256.899 6.29512C257.711 6.88591 258.282 7.68565 258.614 8.69432L256.64 9.24189C256.447 8.61266 256.123 8.12514 255.667 7.77931C255.211 7.42867 254.622 7.25336 253.902 7.25336C253.244 7.25336 252.694 7.39985 252.252 7.69285C251.815 7.98585 251.486 8.39892 251.265 8.93208C251.044 9.46523 250.933 10.0921 250.933 10.8125C250.933 11.533 251.044 12.1598 251.265 12.693C251.486 13.2261 251.815 13.6392 252.252 13.9322C252.694 14.2252 253.244 14.3717 253.902 14.3717C254.622 14.3717 255.211 14.1964 255.667 13.8458C256.123 13.4951 256.447 13.0076 256.64 12.3832L258.614 12.9307C258.282 13.9394 257.711 14.7392 256.899 15.33C256.092 15.9207 255.093 16.2161 253.902 16.2161ZM262.607 16V7.45509H259.336V5.62507H267.837V7.45509H264.566V16H262.607ZM277.482 16H275.494V9.08338L270.984 16H268.995V5.62507H270.984V12.5417L275.494 5.62507H277.482V16ZM160.966 37.7292V34.17C161.278 34.17 161.542 34.0931 161.758 33.9394C161.979 33.7809 162.159 33.56 162.299 33.2766C162.438 32.9884 162.548 32.6522 162.63 32.2679C162.712 31.8836 162.772 31.4658 162.81 31.0143C162.858 30.4379 162.901 29.8711 162.94 29.3139C162.978 28.752 163.017 28.1708 163.055 27.5704C163.093 26.9652 163.137 26.3119 163.185 25.6107L170.072 25.6251V34.17H170.865V37.7292H168.905V36H162.925V37.7292H160.966ZM163.891 34.17H168.113V27.4551L164.971 27.4407C164.938 27.9162 164.909 28.3533 164.885 28.752C164.866 29.1506 164.842 29.5541 164.813 29.9624C164.784 30.3706 164.746 30.8269 164.698 31.3313C164.65 31.8356 164.602 32.2511 164.554 32.5777C164.506 32.8995 164.431 33.1805 164.33 33.4207C164.234 33.6608 164.088 33.9106 163.891 34.17ZM171.727 36V34.3717C171.948 34.3861 172.136 34.3669 172.289 34.3141C172.443 34.2612 172.573 34.1652 172.678 34.0259C172.789 33.8818 172.885 33.6849 172.966 33.4351C173.048 33.1805 173.125 32.8635 173.197 32.4841C173.312 31.8836 173.408 31.252 173.485 30.5892C173.567 29.9215 173.634 29.2683 173.687 28.6295C173.74 27.9906 173.781 27.4095 173.809 26.8859C173.838 26.3576 173.86 25.9373 173.874 25.6251H180.949V36H178.99V27.4551H175.675C175.656 27.7241 175.63 28.0747 175.596 28.507C175.567 28.9393 175.527 29.4172 175.474 29.9408C175.421 30.4643 175.356 31.0071 175.279 31.569C175.202 32.131 175.109 32.6762 174.998 33.2045C174.897 33.7185 174.775 34.1748 174.631 34.5734C174.487 34.9673 174.295 35.2915 174.054 35.5461C173.819 35.7959 173.514 35.9616 173.139 36.0432C172.765 36.1249 172.294 36.1105 171.727 36ZM190.611 36H188.651V32.4841H186.23L185.366 32.4264C184.443 32.2823 183.766 31.9029 183.334 31.2881C182.901 30.6684 182.685 29.9239 182.685 29.0546C182.685 28.4734 182.779 27.9474 182.966 27.4767C183.158 27.0012 183.451 26.6073 183.845 26.2951C184.239 25.9829 184.746 25.7788 185.366 25.6827C185.505 25.6587 185.658 25.6443 185.827 25.6395C185.995 25.6299 186.129 25.6251 186.23 25.6251H190.611V36ZM184.76 36H182.541L184.789 31.3889L186.806 31.778L184.76 36ZM188.651 30.654V27.4551H186.317C186.216 27.4551 186.105 27.4599 185.985 27.4695C185.865 27.4791 185.755 27.4983 185.654 27.5271C185.39 27.5992 185.185 27.7217 185.041 27.8946C184.897 28.0627 184.796 28.2524 184.739 28.4638C184.686 28.6703 184.659 28.8672 184.659 29.0546C184.659 29.2419 184.686 29.4412 184.739 29.6526C184.796 29.8591 184.897 30.0488 185.041 30.2217C185.185 30.3899 185.39 30.5099 185.654 30.582C185.755 30.6108 185.865 30.63 185.985 30.6396C186.105 30.6492 186.216 30.654 186.317 30.654H188.651ZM195.512 36V25.6251H197.471V30.4091L201.42 25.6251H203.812L199.474 30.7405L204.085 36H201.607L197.471 31.2736V36H195.512ZM208.97 36.2161C207.933 36.2161 207.037 35.9904 206.283 35.5389C205.533 35.0874 204.955 34.4558 204.546 33.644C204.143 32.8323 203.941 31.8885 203.941 30.8125C203.941 29.7366 204.143 28.7928 204.546 27.981C204.955 27.1693 205.533 26.5377 206.283 26.0862C207.037 25.6347 207.933 25.4089 208.97 25.4089C210.008 25.4089 210.901 25.6347 211.65 26.0862C212.404 26.5377 212.983 27.1693 213.387 27.981C213.795 28.7928 213.999 29.7366 213.999 30.8125C213.999 31.8885 213.795 32.8323 213.387 33.644C212.983 34.4558 212.404 35.0874 211.65 35.5389C210.901 35.9904 210.008 36.2161 208.97 36.2161ZM208.97 34.3717C209.628 34.3813 210.176 34.2396 210.613 33.9466C211.05 33.6536 211.377 33.2382 211.593 32.7002C211.814 32.1622 211.924 31.533 211.924 30.8125C211.924 30.0921 211.814 29.4676 211.593 28.9393C211.377 28.4109 211.05 28.0003 210.613 27.7073C210.176 27.4143 209.628 27.263 208.97 27.2534C208.312 27.2437 207.765 27.3854 207.327 27.6784C206.89 27.9714 206.561 28.3869 206.34 28.9249C206.124 29.4628 206.016 30.0921 206.016 30.8125C206.016 31.533 206.124 32.1574 206.34 32.6858C206.561 33.2141 206.89 33.6248 207.327 33.9178C207.765 34.2108 208.312 34.3621 208.97 34.3717ZM215.437 36V25.6251H219.818C219.919 25.6251 220.053 25.6299 220.221 25.6395C220.394 25.6443 220.548 25.6587 220.682 25.6827C221.302 25.7788 221.809 25.9829 222.203 26.2951C222.601 26.6073 222.894 27.0012 223.082 27.4767C223.269 27.9474 223.363 28.4734 223.363 29.0546C223.363 29.6357 223.267 30.1641 223.074 30.6396C222.887 31.1103 222.594 31.5018 222.195 31.814C221.802 32.1262 221.297 32.3303 220.682 32.4264C220.548 32.4456 220.394 32.46 220.221 32.4696C220.048 32.4792 219.914 32.4841 219.818 32.4841H217.397V36H215.437ZM217.397 30.654H219.731C219.832 30.654 219.943 30.6492 220.063 30.6396C220.183 30.63 220.293 30.6108 220.394 30.582C220.658 30.5099 220.863 30.3899 221.007 30.2217C221.151 30.0488 221.249 29.8591 221.302 29.6526C221.36 29.4412 221.389 29.2419 221.389 29.0546C221.389 28.8672 221.36 28.6703 221.302 28.4638C221.249 28.2524 221.151 28.0627 221.007 27.8946C220.863 27.7217 220.658 27.5992 220.394 27.5271C220.293 27.4983 220.183 27.4791 220.063 27.4695C219.943 27.4599 219.832 27.4551 219.731 27.4551H217.397V30.654ZM224.809 36V25.6251H231.582V27.4551H226.769V29.6742H230.717V31.5042H226.769V34.17H231.582V36H224.809ZM233.309 36V25.6251H235.297V32.5417L239.807 25.6251H241.796V36H239.807V29.0834L235.297 36H233.309ZM237.516 24.7605C237.094 24.7605 236.709 24.6572 236.364 24.4507C236.018 24.2441 235.742 23.968 235.535 23.6221C235.328 23.2763 235.225 22.892 235.225 22.4694H236.738C236.738 22.6855 236.813 22.8704 236.962 23.0241C237.115 23.173 237.3 23.2475 237.516 23.2475C237.732 23.2475 237.915 23.173 238.064 23.0241C238.218 22.8704 238.294 22.6855 238.294 22.4694H239.807C239.807 22.892 239.704 23.2763 239.498 23.6221C239.291 23.968 239.015 24.2441 238.669 24.4507C238.323 24.6572 237.939 24.7605 237.516 24.7605ZM248.259 36.2161C247.221 36.2161 246.326 35.9904 245.572 35.5389C244.822 35.0874 244.243 34.4558 243.835 33.644C243.432 32.8323 243.23 31.8885 243.23 30.8125C243.23 29.7366 243.432 28.7928 243.835 27.981C244.243 27.1693 244.822 26.5377 245.572 26.0862C246.326 25.6347 247.221 25.4089 248.259 25.4089C249.45 25.4089 250.449 25.7043 251.256 26.2951C252.068 26.8859 252.639 27.6856 252.971 28.6943L250.997 29.2419C250.805 28.6127 250.48 28.1251 250.024 27.7793C249.568 27.4287 248.979 27.2534 248.259 27.2534C247.601 27.2534 247.051 27.3999 246.609 27.6929C246.172 27.9858 245.843 28.3989 245.622 28.9321C245.401 29.4652 245.291 30.0921 245.291 30.8125C245.291 31.533 245.401 32.1598 245.622 32.693C245.843 33.2261 246.172 33.6392 246.609 33.9322C247.051 34.2252 247.601 34.3717 248.259 34.3717C248.979 34.3717 249.568 34.1964 250.024 33.8458C250.48 33.4951 250.805 33.0076 250.997 32.3832L252.971 32.9307C252.639 33.9394 252.068 34.7392 251.256 35.33C250.449 35.9207 249.45 36.2161 248.259 36.2161ZM254.557 36V25.6251H256.517V30.4091L260.465 25.6251H262.857L258.52 30.7405L263.131 36H260.653L256.517 31.2736V36H254.557ZM272.627 36H270.639V29.0834L266.129 36H264.14V25.6251H266.129V32.5417L270.639 25.6251H272.627V36ZM273.773 36L277.26 30.7549L273.874 25.6251H276.281L278.485 29.0834L280.661 25.6251H283.082L279.696 30.7549L283.168 36H280.762L278.485 32.4264L276.194 36H273.773ZM160.822 56L163.992 45.6251H166.917L170.087 56H168.07L165.245 46.8499H165.62L162.839 56H160.822ZM162.724 53.8386V52.0085H168.199V53.8386H162.724ZM171.378 56V45.6251H175.528C176.268 45.6251 176.866 45.774 177.322 46.0718C177.779 46.3648 178.112 46.7346 178.324 47.1813C178.535 47.628 178.641 48.0795 178.641 48.5358C178.641 49.117 178.509 49.5997 178.244 49.984C177.985 50.3682 177.627 50.6252 177.171 50.7549V50.3947C177.819 50.5291 178.304 50.8293 178.626 51.2953C178.953 51.7612 179.116 52.2823 179.116 52.8587C179.116 53.4783 179.001 54.0235 178.77 54.4942C178.545 54.9649 178.199 55.3348 177.733 55.6037C177.267 55.8679 176.681 56 175.975 56H171.378ZM173.367 54.1556H175.773C176.037 54.1556 176.273 54.1003 176.479 53.9899C176.686 53.8746 176.847 53.7161 176.962 53.5143C177.082 53.3078 177.142 53.0652 177.142 52.7867C177.142 52.5417 177.092 52.3231 176.991 52.131C176.89 51.9389 176.736 51.7876 176.53 51.6771C176.328 51.5618 176.076 51.5042 175.773 51.5042H173.367V54.1556ZM173.367 49.6742H175.499C175.72 49.6742 175.917 49.6357 176.09 49.5589C176.263 49.482 176.4 49.3644 176.501 49.2059C176.602 49.0426 176.652 48.8336 176.652 48.579C176.652 48.262 176.554 47.9955 176.357 47.7793C176.16 47.5632 175.874 47.4551 175.499 47.4551H173.367V49.6742ZM182.678 56V47.4551H179.407V45.6251H187.909V47.4551H184.638V56H182.678ZM193.519 56.2161C192.482 56.2161 191.586 55.9904 190.832 55.5389C190.083 55.0874 189.504 54.4558 189.095 53.644C188.692 52.8323 188.49 51.8885 188.49 50.8125C188.49 49.7366 188.692 48.7928 189.095 47.981C189.504 47.1693 190.083 46.5377 190.832 46.0862C191.586 45.6347 192.482 45.4089 193.519 45.4089C194.557 45.4089 195.45 45.6347 196.199 46.0862C196.954 46.5377 197.532 47.1693 197.936 47.981C198.344 48.7928 198.548 49.7366 198.548 50.8125C198.548 51.8885 198.344 52.8323 197.936 53.644C197.532 54.4558 196.954 55.0874 196.199 55.5389C195.45 55.9904 194.557 56.2161 193.519 56.2161ZM193.519 54.3717C194.177 54.3813 194.725 54.2396 195.162 53.9466C195.599 53.6536 195.926 53.2382 196.142 52.7002C196.363 52.1622 196.473 51.533 196.473 50.8125C196.473 50.0921 196.363 49.4676 196.142 48.9393C195.926 48.4109 195.599 48.0003 195.162 47.7073C194.725 47.4143 194.177 47.263 193.519 47.2534C192.861 47.2437 192.314 47.3854 191.877 47.6784C191.439 47.9714 191.11 48.3869 190.889 48.9249C190.673 49.4628 190.565 50.0921 190.565 50.8125C190.565 51.533 190.673 52.1574 190.889 52.6858C191.11 53.2141 191.439 53.6248 191.877 53.9178C192.314 54.2108 192.861 54.3621 193.519 54.3717ZM199.986 56V45.6251H201.744L205.174 52.5129L208.603 45.6251H210.361V56H208.531V49.8039L205.52 56H204.828L201.816 49.8039V56H199.986ZM216.836 56.2161C215.799 56.2161 214.903 55.9904 214.149 55.5389C213.4 55.0874 212.821 54.4558 212.413 53.644C212.009 52.8323 211.807 51.8885 211.807 50.8125C211.807 49.7366 212.009 48.7928 212.413 47.981C212.821 47.1693 213.4 46.5377 214.149 46.0862C214.903 45.6347 215.799 45.4089 216.836 45.4089C217.874 45.4089 218.767 45.6347 219.517 46.0862C220.271 46.5377 220.849 47.1693 221.253 47.981C221.661 48.7928 221.865 49.7366 221.865 50.8125C221.865 51.8885 221.661 52.8323 221.253 53.644C220.849 54.4558 220.271 55.0874 219.517 55.5389C218.767 55.9904 217.874 56.2161 216.836 56.2161ZM216.836 54.3717C217.494 54.3813 218.042 54.2396 218.479 53.9466C218.916 53.6536 219.243 53.2382 219.459 52.7002C219.68 52.1622 219.79 51.533 219.79 50.8125C219.79 50.0921 219.68 49.4676 219.459 48.9393C219.243 48.4109 218.916 48.0003 218.479 47.7073C218.042 47.4143 217.494 47.263 216.836 47.2534C216.178 47.2437 215.631 47.3854 215.194 47.6784C214.757 47.9714 214.428 48.3869 214.207 48.9249C213.99 49.4628 213.882 50.0921 213.882 50.8125C213.882 51.533 213.99 52.1574 214.207 52.6858C214.428 53.2141 214.757 53.6248 215.194 53.9178C215.631 54.2108 216.178 54.3621 216.836 54.3717ZM223.304 56V45.6251H230.422V47.4551H225.263V49.4292H227.684C227.78 49.4292 227.915 49.434 228.088 49.4436C228.26 49.4484 228.414 49.458 228.549 49.4724C229.144 49.5349 229.639 49.7198 230.033 50.0272C230.432 50.3298 230.729 50.7165 230.926 51.1872C231.128 51.6531 231.229 52.1622 231.229 52.7146C231.229 53.267 231.13 53.7785 230.933 54.2492C230.737 54.7151 230.439 55.1018 230.04 55.4092C229.646 55.7118 229.149 55.8943 228.549 55.9568C228.414 55.9712 228.26 55.9832 228.088 55.9928C227.919 55.9976 227.785 56 227.684 56H223.304ZM225.263 54.17H227.598C227.699 54.17 227.809 54.1652 227.929 54.1556C228.049 54.146 228.16 54.1316 228.26 54.1123C228.659 54.0259 228.923 53.841 229.053 53.5576C229.188 53.2742 229.255 52.9932 229.255 52.7146C229.255 52.4312 229.188 52.1502 229.053 51.8716C228.923 51.5883 228.659 51.4033 228.26 51.3169C228.16 51.2929 228.049 51.2784 227.929 51.2736C227.809 51.264 227.699 51.2592 227.598 51.2592H225.263V54.17ZM241.163 56H239.174V49.0834L234.664 56H232.675V45.6251H234.664V52.5417L239.174 45.6251H241.163V56ZM242.453 56V54.3717C242.674 54.3861 242.861 54.3669 243.015 54.3141C243.168 54.2612 243.298 54.1652 243.404 54.0259C243.514 53.8818 243.61 53.6849 243.692 53.4351C243.773 53.1805 243.85 52.8635 243.922 52.4841C244.038 51.8836 244.134 51.252 244.211 50.5892C244.292 49.9215 244.359 49.2683 244.412 48.6295C244.465 47.9906 244.506 47.4095 244.535 46.8859C244.564 46.3576 244.585 45.9373 244.6 45.6251H251.675V56H249.715V47.4551H246.401C246.382 47.7241 246.355 48.0747 246.322 48.507C246.293 48.9393 246.252 49.4172 246.199 49.9408C246.146 50.4643 246.081 51.0071 246.005 51.569C245.928 52.131 245.834 52.6762 245.724 53.2045C245.623 53.7185 245.5 54.1748 245.356 54.5734C245.212 54.9673 245.02 55.2915 244.78 55.5461C244.544 55.7959 244.239 55.9616 243.865 56.0432C243.49 56.1249 243.019 56.1105 242.453 56ZM253.699 56V45.6251H260.471V47.4551H255.659V49.6742H259.607V51.5042H255.659V54.17H260.471V56H253.699ZM262.198 56V45.6251H264.187V52.5417L268.697 45.6251H270.686V56H268.697V49.0834L264.187 56H262.198ZM266.406 44.7605C265.983 44.7605 265.599 44.6572 265.253 44.4507C264.907 44.2441 264.631 43.968 264.425 43.6221C264.218 43.2763 264.115 42.892 264.115 42.4694H265.628C265.628 42.6855 265.702 42.8704 265.851 43.0241C266.005 43.173 266.19 43.2475 266.406 43.2475C266.622 43.2475 266.805 43.173 266.953 43.0241C267.107 42.8704 267.184 42.6855 267.184 42.4694H268.697C268.697 42.892 268.594 43.2763 268.387 43.6221C268.181 43.968 267.905 44.2441 267.559 44.4507C267.213 44.6572 266.829 44.7605 266.406 44.7605Z" fill="white"/>
<defs>
<clipPath id="clip0_1_531">
<rect width="145.126" height="55.5796" fill="white" transform="translate(0 1.24121)"/>
</clipPath>
</defs>
</svg>
