<svg width="169" height="73" viewBox="0 0 169 73" fill="none" xmlns="http://www.w3.org/2000/svg">
<g clip-path="url(#clip0_195_251)">
<path fill-rule="evenodd" clip-rule="evenodd" d="M147.953 0.0749387C150.294 0.260773 152.507 0.839999 154.537 1.74262C151.561 3.20758 148.702 5.14799 146.645 7.78346L146.395 8.10445C144.728 8.0948 143.03 8.43509 141.412 9.16395C141.063 9.32082 140.728 9.48976 140.403 9.67318C140.6 6.49951 141.8 3.40307 143.31 0.63727L143.546 0.205264C144.979 0.00494896 146.453 -0.0457333 147.953 0.0749387ZM140.018 43.4782V64.7961H122.41V22.4716C123.342 32.5285 130.461 40.8717 140.018 43.4782ZM122.41 17.9851V0.00012207H133.272C127.261 3.91472 123.104 10.4455 122.41 17.9851ZM165.907 25.1361L168.99 25.6453L168.535 29.0965C168.328 30.6725 168.311 30.8752 167.511 32.2871C163.908 38.6489 157.596 43.0752 150.395 44.3036C149.239 44.5015 149.102 44.4581 147.97 44.236L143.731 43.483L144.146 40.3601C144.726 37.0416 152.057 34.5606 154.985 32.4754C157.936 30.3732 162.203 24.6413 165.907 25.1361ZM142.262 11.0657C147.31 8.79952 153.235 11.0633 155.496 16.1195C157.757 21.178 155.501 27.1151 150.453 29.3813C145.405 31.6475 139.483 29.3837 137.219 24.3276C134.958 19.2714 137.214 13.332 142.262 11.0657ZM149.868 28.0757C149.14 28.4015 148.285 28.0757 147.96 27.3468C147.635 26.6179 147.96 25.7636 148.688 25.4378C149.415 25.1095 150.27 25.4378 150.595 26.1666C150.92 26.8955 150.595 27.7498 149.868 28.0757ZM144.025 15.0117C143.298 15.3375 142.443 15.0117 142.118 14.2829C141.79 13.554 142.118 12.6996 142.845 12.3714C143.572 12.0456 144.427 12.3714 144.752 13.1003C145.08 13.8291 144.752 14.6859 144.025 15.0117ZM140.427 24.47C139.7 24.7982 138.845 24.4724 138.52 23.7435C138.192 23.0147 138.52 22.1579 139.247 21.8321C139.974 21.5039 140.829 21.8321 141.154 22.5585C141.48 23.2874 141.154 24.1442 140.427 24.47ZM153.463 18.6174C152.736 18.9432 151.881 18.6174 151.556 17.8885C151.228 17.1597 151.556 16.3053 152.283 15.9771C153.011 15.6513 153.866 15.9771 154.191 16.7059C154.518 17.4348 154.191 18.2892 153.466 18.6174H153.463ZM144.608 16.3174C146.763 15.3496 149.29 16.3174 150.255 18.4726C151.221 20.6326 150.255 23.1643 148.105 24.1321C145.952 25.0975 143.423 24.1321 142.46 21.9745C141.494 19.8169 142.46 17.2852 144.61 16.3174H144.608ZM155.809 2.36288C159.219 4.17778 162.025 6.93635 163.911 10.2669C160.659 9.67801 157.22 9.54286 154.017 10.4382L153.634 10.5444C151.915 9.25083 149.877 8.43509 147.744 8.18409C149.759 5.7248 152.546 3.92196 155.385 2.56561L155.807 2.36288H155.809ZM164.563 11.5219C166.042 14.6256 166.753 18.1468 166.461 21.8224C166.439 22.0855 166.415 22.3437 166.384 22.602C164.111 20.2175 161.423 18.0888 158.321 16.9232L157.953 16.7832C157.801 16.2739 157.615 15.7671 157.391 15.2675C156.722 13.7712 155.785 12.4776 154.665 11.4157C157.743 10.6361 161.054 10.8413 164.142 11.4398L164.563 11.5219ZM166.172 23.9994L166.162 24.0525L166.064 24.0356H166.044C163.59 23.7097 161.194 25.4764 159.436 26.9872C159.397 27.0186 159.361 27.0524 159.325 27.0837C158.947 26.2149 158.504 25.3726 157.986 24.581L157.765 24.2359C158.446 22.2979 158.636 20.1813 158.263 18.0913C161.213 19.2811 163.766 21.4049 165.912 23.717L166.172 23.9994ZM158.451 27.8681C157.844 28.4256 157.249 28.9976 156.65 29.5647C155.925 30.2502 155.149 30.9911 154.338 31.5703C153.955 31.8406 153.504 32.1158 153.006 32.3981C153.138 31.7972 153.239 31.189 153.304 30.576L153.355 30.1126C155.055 28.9059 156.375 27.3009 157.247 25.4884C157.714 26.2463 158.111 27.0451 158.451 27.8705V27.8681ZM151.686 33.1077C148.206 34.9178 143.599 37.0416 143.05 40.1646C141.263 39.8701 139.56 39.3416 137.975 38.6151C140.923 37.1695 143.753 35.2532 145.798 32.6539L146.043 32.3426C147.799 32.3909 149.593 32.053 151.303 31.2855C151.595 31.1552 151.881 31.0128 152.156 30.8608C152.055 31.6186 151.893 32.3692 151.686 33.1077ZM136.716 37.9828C133.414 36.1824 130.69 33.489 128.841 30.2526C132.063 30.7787 135.454 30.8559 138.604 29.9316L138.97 29.823C140.644 31.1118 142.626 31.942 144.709 32.2316C142.681 34.6909 139.883 36.4865 137.031 37.8332L136.716 37.9828ZM128.188 29.0097C126.68 25.8867 125.955 22.3341 126.249 18.627C126.266 18.4219 126.285 18.2216 126.307 18.0213C128.602 20.3695 131.304 22.4548 134.409 23.5818L134.775 23.7146C134.924 24.2093 135.105 24.6968 135.319 25.1795C135.974 26.6421 136.88 27.9091 137.966 28.9541C134.89 29.7795 131.572 29.6178 128.467 29.0579L128.188 29.0072V29.0097ZM126.507 16.6239C127.186 12.8324 128.908 9.43908 131.345 6.72155C131.849 9.97004 132.831 13.2451 134.698 15.9723L134.917 16.2932C134.255 18.2288 134.076 20.3358 134.457 22.4137C131.495 21.2577 128.913 19.1628 126.743 16.8749L126.507 16.6239ZM132.321 5.7079C135.004 3.1038 138.397 1.2527 142.147 0.451435C140.586 3.391 139.399 6.64915 139.274 9.999L139.259 10.4069C137.576 11.6281 136.273 13.2378 135.42 15.0552C133.681 12.3835 132.802 9.1736 132.366 6.04579L132.321 5.7079Z" fill="#FEC80A"/>
<path fill-rule="evenodd" clip-rule="evenodd" d="M3.022 72.0757H1.98882L0.931568 70.4949C0.909893 70.4635 0.878585 70.396 0.835235 70.2946H0.823193V72.0781H0.00195312V68.4363H0.820785V70.157H0.832826C0.854501 70.1088 0.888218 70.0412 0.933976 69.9543L1.93825 68.4363H2.91362L1.64684 70.1739L3.022 72.0781V72.0757ZM10.1555 72.1409C9.63526 72.1409 9.2114 71.9695 8.88146 71.6317C8.55393 71.2914 8.39016 70.8497 8.39016 70.3043C8.39016 69.7299 8.55633 69.2641 8.88868 68.9093C9.22103 68.5545 9.66176 68.3759 10.2109 68.3759C10.7311 68.3759 11.1501 68.5473 11.4704 68.8876C11.7907 69.2279 11.9497 69.6768 11.9497 70.2319C11.9497 70.787 11.7835 71.2648 11.4511 71.6148C11.1212 71.9647 10.6877 72.1409 10.1531 72.1409H10.1555ZM10.1892 69.0806C9.90259 69.0806 9.6738 69.1892 9.50521 69.404C9.33663 69.6188 9.25234 69.9036 9.25234 70.2608C9.25234 70.618 9.33663 70.9076 9.50521 71.1176C9.6738 71.3276 9.89536 71.4313 10.1675 71.4313C10.4396 71.4313 10.6733 71.33 10.8394 71.1272C11.0032 70.9221 11.0875 70.6397 11.0875 70.2777C11.0875 69.9157 11.008 69.6068 10.8467 69.3968C10.6853 69.1868 10.4661 69.0806 10.1868 69.0806H10.1892ZM20.8508 72.0757H19.9116L19.3481 71.1393C19.3047 71.0669 19.2638 71.0042 19.2252 70.9487C19.1867 70.8931 19.1482 70.8449 19.1072 70.8063C19.0687 70.7652 19.0253 70.7363 18.982 70.7145C18.9386 70.6928 18.8905 70.6832 18.8423 70.6832H18.6207V72.0757H17.8019V68.4338H19.1C19.9814 68.4338 20.4222 68.7645 20.4222 69.4234C20.4222 69.5513 20.4029 69.6671 20.3644 69.7757C20.3258 69.8843 20.2704 69.9809 20.2006 70.0677C20.1308 70.1546 20.0441 70.227 19.9429 70.2922C19.8418 70.3549 19.731 70.4032 19.6057 70.4394V70.4491C19.6611 70.466 19.7117 70.4925 19.7647 70.5311C19.8153 70.5697 19.8634 70.6132 19.9116 70.6639C19.9574 70.7145 20.0031 70.7701 20.0465 70.828C20.0898 70.8859 20.1283 70.9438 20.1645 70.9993L20.8508 72.0757ZM18.6207 69.0493V70.0629H18.9748C19.1506 70.0629 19.2927 70.0122 19.3986 69.9109C19.507 69.8071 19.56 69.6792 19.56 69.5271C19.56 69.2086 19.3697 69.0493 18.9892 69.0493H18.6207ZM28.6201 72.0757H26.4406V68.4338H28.5358V69.1024H27.2594V69.9133H28.4467V70.577H27.2594V71.4096H28.6201V72.0757ZM37.6465 72.0757H36.7554L36.4978 71.2672H35.2045L34.9492 72.0757H34.0629L35.3875 68.4338H36.3581L37.6489 72.0757H37.6465ZM36.3099 70.6373L35.9198 69.4137C35.8909 69.322 35.8692 69.2134 35.8571 69.0879H35.8379C35.8282 69.1941 35.809 69.3003 35.7753 69.404L35.3803 70.6373H36.3099ZM46.62 72.0757H45.7939L44.2959 69.7878C44.2092 69.655 44.1466 69.5537 44.1129 69.4861H44.1033C44.1153 69.614 44.1225 69.8119 44.1225 70.075V72.0757H43.3494V68.4338H44.2309L45.6711 70.6494C45.7361 70.7507 45.7963 70.8473 45.8541 70.9462H45.8637C45.8517 70.8618 45.8421 70.6952 45.8421 70.4467V68.4338H46.6151V72.0757H46.62ZM56.8265 71.9357V71.1224C56.9734 71.2479 57.1347 71.3396 57.3057 71.4C57.4767 71.4603 57.6525 71.4941 57.8259 71.4941C57.9295 71.4941 58.021 71.4844 58.0956 71.4651C58.1727 71.4458 58.2377 71.4217 58.2883 71.3879C58.3413 71.3541 58.3798 71.3155 58.4039 71.2721C58.4304 71.2262 58.4424 71.1779 58.4424 71.1272C58.4424 71.0548 58.4232 70.9921 58.3822 70.9366C58.3413 70.8811 58.2859 70.828 58.2161 70.7821C58.1462 70.7339 58.0619 70.688 57.9656 70.6446C57.8693 70.6011 57.7657 70.5553 57.6549 70.5094C57.3707 70.3911 57.1588 70.2463 57.0191 70.075C56.8794 69.9036 56.812 69.6985 56.812 69.4547C56.812 69.2641 56.8481 69.1024 56.9252 68.9672C57.0023 68.8296 57.1058 68.7186 57.2359 68.6293C57.3683 68.5424 57.52 68.4773 57.691 68.4338C57.862 68.3928 58.0451 68.3711 58.2377 68.3711C58.4304 68.3711 58.5942 68.3832 58.7411 68.4073C58.8856 68.429 59.0204 68.4652 59.1457 68.5135V69.2737C59.0855 69.2303 59.018 69.1941 58.9458 69.1627C58.8735 69.1313 58.7989 69.1024 58.7242 69.0806C58.6496 69.0589 58.5725 69.0444 58.4978 69.0348C58.4232 69.0251 58.3509 69.0203 58.2835 69.0203C58.1896 69.0203 58.1053 69.03 58.0306 69.0469C57.9535 69.0638 57.8909 69.0903 57.8379 69.1217C57.7874 69.1531 57.7464 69.1917 57.7175 69.2375C57.6886 69.2834 57.6742 69.3316 57.6742 69.3872C57.6742 69.4475 57.691 69.503 57.7223 69.5513C57.7537 69.5995 57.7994 69.6478 57.8596 69.6888C57.9198 69.7323 57.9897 69.7733 58.074 69.8143C58.1583 69.8554 58.2546 69.8988 58.3606 69.9422C58.5051 70.0026 58.6351 70.0677 58.7507 70.1353C58.8663 70.2029 58.965 70.2801 59.0469 70.367C59.1288 70.4539 59.1938 70.5528 59.2372 70.6639C59.2805 70.7725 59.3022 70.9028 59.3022 71.05C59.3022 71.2527 59.2637 71.4241 59.1866 71.5617C59.1095 71.6992 59.006 71.8127 58.8735 71.8971C58.7435 71.9816 58.5893 72.0443 58.4135 72.083C58.2377 72.1192 58.0547 72.1385 57.8596 72.1385C57.6646 72.1385 57.4719 72.1216 57.2913 72.0878C57.1106 72.054 56.9541 72.0033 56.8216 71.9357H56.8265ZM65.9709 70.8207V72.0733H65.152V68.4314H66.4357C67.3508 68.4314 67.8084 68.8176 67.8084 69.5923C67.8084 69.9591 67.676 70.2536 67.4135 70.4804C67.151 70.7049 66.8017 70.8183 66.361 70.8183H65.9709V70.8207ZM65.9709 69.0638V70.1981H66.2936C66.7295 70.1981 66.9462 70.0074 66.9462 69.6237C66.9462 69.2399 66.7271 69.0638 66.2936 69.0638H65.9709ZM76.7867 72.0757H75.8956L75.6379 71.2672H74.347L74.0893 72.0757H73.2031L74.5277 68.4338H75.4982L76.7915 72.0757H76.7867ZM75.4501 70.6373L75.0599 69.4137C75.031 69.322 75.0117 69.2134 74.9997 69.0879H74.9804C74.9708 69.1941 74.9491 69.3003 74.9154 69.404L74.5204 70.6373H75.4501ZM85.5385 72.0757H84.5993L84.0333 71.1393C83.99 71.0669 83.9515 71.0042 83.9129 70.9487C83.8744 70.8931 83.8334 70.8449 83.7949 70.8063C83.754 70.7652 83.713 70.7363 83.6697 70.7145C83.6263 70.6928 83.5806 70.6832 83.53 70.6832H83.3108V72.0757H82.492V68.4338H83.7901C84.6715 68.4338 85.1147 68.7645 85.1147 69.4234C85.1147 69.5513 85.0954 69.6671 85.0545 69.7757C85.0159 69.8843 84.9605 69.9809 84.8907 70.0677C84.8185 70.1546 84.7342 70.227 84.633 70.2922C84.5319 70.3549 84.4187 70.4032 84.2958 70.4394V70.4491C84.3512 70.466 84.4018 70.4925 84.4524 70.5311C84.503 70.5697 84.5511 70.6132 84.5993 70.6639C84.6475 70.7145 84.6908 70.7701 84.7342 70.828C84.7775 70.8859 84.816 70.9438 84.8522 70.9993L85.5385 72.0757ZM83.3084 69.0493V70.0629H83.6625C83.8383 70.0629 83.9779 70.0122 84.0839 69.9109C84.1923 69.8071 84.2477 69.6792 84.2477 69.5271C84.2477 69.2086 84.0574 69.0493 83.6769 69.0493H83.3084ZM93.3078 72.0757H91.1283V68.4338H93.2235V69.1024H91.9471V69.9133H93.1344V70.577H91.9471V71.4096H93.3078V72.0757Z" fill="white"/>
<path fill-rule="evenodd" clip-rule="evenodd" d="M104.258 70.8256V72.0782H103.439V68.4363H104.721C105.636 68.4363 106.093 68.8225 106.093 69.5972C106.093 69.964 105.961 70.2585 105.698 70.4853C105.436 70.7098 105.084 70.8232 104.646 70.8232H104.256L104.258 70.8256ZM104.258 69.0686V70.203H104.581C105.017 70.203 105.234 70.0123 105.234 69.6286C105.234 69.2448 105.017 69.0686 104.581 69.0686H104.258ZM115.074 72.0806H114.183L113.925 71.2721H112.634L112.379 72.0806H111.493L112.815 68.4387H113.786L115.076 72.0806H115.074ZM113.735 70.6422L113.345 69.4186C113.316 69.3269 113.297 69.2183 113.285 69.0928H113.265C113.256 69.199 113.237 69.3052 113.203 69.4089L112.808 70.6422H113.737H113.735ZM123.826 72.0806H122.887L122.323 71.1442C122.28 71.0718 122.239 71.009 122.2 70.9535C122.162 70.898 122.123 70.8498 122.082 70.8111C122.041 70.7701 122 70.7411 121.957 70.7194C121.914 70.6977 121.866 70.6881 121.817 70.6881H121.596V72.0806H120.777V68.4387H122.075C122.957 68.4387 123.397 68.7694 123.397 69.4282C123.397 69.5562 123.378 69.672 123.339 69.7806C123.301 69.8892 123.246 69.9857 123.176 70.0726C123.106 70.1595 123.019 70.2319 122.918 70.2971C122.817 70.3598 122.706 70.4081 122.581 70.4443V70.454C122.636 70.4708 122.687 70.4974 122.74 70.536C122.79 70.5746 122.839 70.6181 122.887 70.6687C122.935 70.7194 122.978 70.7749 123.022 70.8329C123.065 70.8908 123.103 70.9487 123.14 71.0042L123.826 72.0806ZM121.596 69.0542V70.0678H121.95C122.126 70.0678 122.268 70.0171 122.374 69.9158C122.482 69.812 122.537 69.6841 122.537 69.532C122.537 69.2134 122.347 69.0542 121.967 69.0542H121.596ZM131.966 69.1072H130.931V72.0806H130.109V69.1072H129.079V68.4387H131.966V69.1072ZM137.539 71.9406V71.1273C137.686 71.2528 137.847 71.3445 138.018 71.4048C138.192 71.4652 138.365 71.499 138.541 71.499C138.644 71.499 138.736 71.4893 138.811 71.47C138.888 71.4507 138.95 71.4266 139.003 71.3928C139.054 71.359 139.092 71.3204 139.119 71.2769C139.145 71.2311 139.157 71.1828 139.157 71.1321C139.157 71.0597 139.138 70.997 139.097 70.9415C139.056 70.886 139.001 70.8329 138.931 70.787C138.861 70.7387 138.777 70.6929 138.681 70.6494C138.584 70.606 138.481 70.5601 138.37 70.5143C138.086 70.396 137.874 70.2512 137.734 70.0799C137.594 69.9085 137.527 69.7034 137.527 69.4596C137.527 69.2689 137.563 69.1072 137.64 68.9721C137.717 68.8345 137.821 68.7235 137.951 68.6342C138.083 68.5473 138.235 68.4822 138.406 68.4387C138.579 68.3977 138.76 68.376 138.953 68.376C139.145 68.376 139.309 68.388 139.456 68.4122C139.6 68.4339 139.735 68.4701 139.861 68.5184V69.2786C139.8 69.2352 139.733 69.199 139.661 69.1676C139.588 69.1362 139.514 69.1072 139.439 69.0855C139.364 69.0638 139.287 69.0493 139.213 69.0397C139.138 69.03 139.066 69.0252 138.998 69.0252C138.904 69.0252 138.823 69.0348 138.746 69.0517C138.668 69.0686 138.606 69.0952 138.553 69.1266C138.502 69.1579 138.461 69.1965 138.43 69.2424C138.401 69.2883 138.387 69.3365 138.387 69.392C138.387 69.4524 138.404 69.5079 138.435 69.5562C138.466 69.6044 138.512 69.6527 138.572 69.6937C138.63 69.7372 138.702 69.7782 138.789 69.8192C138.873 69.8602 138.97 69.9037 139.075 69.9471C139.222 70.0075 139.35 70.0726 139.468 70.1402C139.584 70.2078 139.682 70.285 139.764 70.3719C139.846 70.4588 139.911 70.5577 139.955 70.6687C139.998 70.7773 140.02 70.9077 140.02 71.0549C140.02 71.2576 139.981 71.429 139.904 71.5665C139.827 71.7041 139.723 71.8175 139.591 71.902C139.458 71.9865 139.307 72.0492 139.131 72.0878C138.955 72.124 138.77 72.1434 138.577 72.1434C138.384 72.1434 138.189 72.1265 138.009 72.0927C137.828 72.0589 137.671 72.0082 137.541 71.9406H137.539Z" fill="#FEC80A"/>
<path fill-rule="evenodd" clip-rule="evenodd" d="M118.518 42.7348C118.518 54.9202 108.661 64.796 96.5012 64.796H73.5547V47.1514H94.512C99.4876 46.9703 100.379 42.631 100.152 40.4179C99.5983 35.0166 92.0145 29.2219 88.2696 25.5318C83.017 20.3574 78.0029 14.4493 77.4586 6.5549C77.2659 4.18732 77.5332 2.00074 78.1618 0H95.9136C89.3196 13.3536 118.516 20.6759 118.516 42.7348H118.518Z" fill="white"/>
<path fill-rule="evenodd" clip-rule="evenodd" d="M67.8602 0.00012207L42.2091 32.3981L69.6014 64.7961H48.4996L21.1073 32.3981L46.7584 0.00012207H67.8602Z" fill="white"/>
<path fill-rule="evenodd" clip-rule="evenodd" d="M0 32.398L27.3947 64.796H0V32.398L25.6511 0H0V32.398Z" fill="white"/>
</g>
<defs>
<clipPath id="clip0_195_251">
<rect width="168.983" height="72.1425" fill="white"/>
</clipPath>
</defs>
</svg>
