<svg width="133" height="31" viewBox="0 0 133 31" fill="none" xmlns="http://www.w3.org/2000/svg">
<g clip-path="url(#clip0_44_417)">
<path d="M19.4589 13.175L13.5081 12.3102L10.8479 6.9172C10.7753 6.76954 10.6557 6.65001 10.5081 6.57735C10.1378 6.39454 9.68778 6.54688 9.50262 6.9172L6.84246 12.3102L0.891682 13.175C0.72762 13.1984 0.57762 13.2758 0.462776 13.393C0.323936 13.5357 0.247429 13.7277 0.250066 13.9267C0.252703 14.1258 0.334268 14.3157 0.476838 14.4547L4.78231 18.6524L3.76512 24.5797C3.74127 24.7176 3.75652 24.8594 3.80916 24.989C3.8618 25.1187 3.94972 25.231 4.06294 25.3132C4.17616 25.3955 4.31015 25.4443 4.44973 25.4543C4.5893 25.4642 4.72888 25.4349 4.85262 25.3695L10.1753 22.5711L15.4979 25.3695C15.6432 25.4469 15.812 25.4727 15.9737 25.4445C16.3815 25.3742 16.6557 24.9875 16.5854 24.5797L15.5682 18.6524L19.8737 14.4547C19.9909 14.3399 20.0682 14.1899 20.0917 14.0258C20.155 13.6156 19.869 13.2359 19.4589 13.175Z" fill="#FDC82A"/>
<path d="M47.4589 13.175L41.5081 12.3102L38.8479 6.9172C38.7753 6.76954 38.6557 6.65001 38.5081 6.57735C38.1378 6.39454 37.6878 6.54688 37.5026 6.9172L34.8425 12.3102L28.8917 13.175C28.7276 13.1984 28.5776 13.2758 28.4628 13.393C28.3239 13.5357 28.2474 13.7277 28.2501 13.9267C28.2527 14.1258 28.3343 14.3157 28.4768 14.4547L32.7823 18.6524L31.7651 24.5797C31.7413 24.7176 31.7565 24.8594 31.8092 24.989C31.8618 25.1187 31.9497 25.231 32.0629 25.3132C32.1762 25.3955 32.3102 25.4443 32.4497 25.4543C32.5893 25.4642 32.7289 25.4349 32.8526 25.3695L38.1753 22.5711L43.4979 25.3695C43.6432 25.4469 43.812 25.4727 43.9737 25.4445C44.3815 25.3742 44.6557 24.9875 44.5854 24.5797L43.5682 18.6524L47.8737 14.4547C47.9909 14.3399 48.0682 14.1899 48.0917 14.0258C48.155 13.6156 47.869 13.2359 47.4589 13.175Z" fill="#FDC82A"/>
<path d="M75.4589 13.175L69.5081 12.3102L66.8479 6.9172C66.7753 6.76954 66.6557 6.65001 66.5081 6.57735C66.1378 6.39454 65.6878 6.54688 65.5026 6.9172L62.8425 12.3102L56.8917 13.175C56.7276 13.1984 56.5776 13.2758 56.4628 13.393C56.3239 13.5357 56.2474 13.7277 56.2501 13.9267C56.2527 14.1258 56.3343 14.3157 56.4768 14.4547L60.7823 18.6524L59.7651 24.5797C59.7413 24.7176 59.7565 24.8594 59.8092 24.989C59.8618 25.1187 59.9497 25.231 60.0629 25.3132C60.1762 25.3955 60.3102 25.4443 60.4497 25.4543C60.5893 25.4642 60.7289 25.4349 60.8526 25.3695L66.1753 22.5711L71.4979 25.3695C71.6432 25.4469 71.812 25.4727 71.9737 25.4445C72.3815 25.3742 72.6557 24.9875 72.5854 24.5797L71.5682 18.6524L75.8737 14.4547C75.9909 14.3399 76.0682 14.1899 76.0917 14.0258C76.155 13.6156 75.869 13.2359 75.4589 13.175Z" fill="#FDC82A"/>
<path d="M103.459 13.175L97.5081 12.3102L94.8479 6.9172C94.7753 6.76954 94.6557 6.65001 94.5081 6.57735C94.1378 6.39454 93.6878 6.54688 93.5026 6.9172L90.8425 12.3102L84.8917 13.175C84.7276 13.1984 84.5776 13.2758 84.4628 13.393C84.3239 13.5357 84.2474 13.7277 84.2501 13.9267C84.2527 14.1258 84.3343 14.3157 84.4768 14.4547L88.7823 18.6524L87.7651 24.5797C87.7413 24.7176 87.7565 24.8594 87.8092 24.989C87.8618 25.1187 87.9497 25.231 88.0629 25.3132C88.1762 25.3955 88.3102 25.4443 88.4497 25.4543C88.5893 25.4642 88.7289 25.4349 88.8526 25.3695L94.1753 22.5711L99.4979 25.3695C99.6432 25.4469 99.812 25.4727 99.9737 25.4445C100.382 25.3742 100.656 24.9875 100.585 24.5797L99.5682 18.6524L103.874 14.4547C103.991 14.3399 104.068 14.1899 104.092 14.0258C104.155 13.6156 103.869 13.2359 103.459 13.175Z" fill="#FDC82A"/>
<mask id="mask0_44_417" style="mask-type:alpha" maskUnits="userSpaceOnUse" x="112" y="6" width="21" height="20">
<path d="M131.459 13.175L125.508 12.3102L122.848 6.9172C122.775 6.76954 122.656 6.65001 122.508 6.57735C122.138 6.39454 121.688 6.54688 121.503 6.9172L118.842 12.3102L112.892 13.175C112.728 13.1984 112.578 13.2758 112.463 13.393C112.324 13.5357 112.247 13.7277 112.25 13.9267C112.253 14.1258 112.334 14.3157 112.477 14.4547L116.782 18.6524L115.765 24.5797C115.741 24.7176 115.757 24.8594 115.809 24.989C115.862 25.1187 115.95 25.231 116.063 25.3132C116.176 25.3955 116.31 25.4443 116.45 25.4543C116.589 25.4642 116.729 25.4349 116.853 25.3695L122.175 22.5711L127.498 25.3695C127.643 25.4469 127.812 25.4727 127.974 25.4445C128.382 25.3742 128.656 24.9875 128.585 24.5797L127.568 18.6524L131.874 14.4547C131.991 14.3399 132.068 14.1899 132.092 14.0258C132.155 13.6156 131.869 13.2359 131.459 13.175Z" fill="#C4C4C4"/>
</mask>
<g mask="url(#mask0_44_417)">
<path d="M110.25 2.58331H122.25V32.2916H110.25V2.58331Z" fill="#FFE600"/>
<path d="M122.25 2.58331H134.25V32.2916H122.25V2.58331Z" fill="#E5E0EB"/>
</g>
</g>
<defs>
<clipPath id="clip0_44_417">
<rect width="132" height="31" fill="white" transform="translate(0.25)"/>
</clipPath>
</defs>
</svg>
