<svg width="20" height="24" viewBox="0 0 20 24" fill="none" xmlns="http://www.w3.org/2000/svg">
<path d="M17.1295 9.81288L12.5224 9.14332L10.4629 4.96807C10.4067 4.85376 10.3141 4.76122 10.1998 4.70497C9.91313 4.56343 9.56474 4.68138 9.42139 4.96807L7.36189 9.14332L2.75479 9.81288C2.62777 9.83103 2.51164 9.89091 2.42273 9.98164C2.31524 10.0921 2.25601 10.2408 2.25805 10.3949C2.26009 10.549 2.32324 10.696 2.43361 10.8036L5.76692 14.0535L4.97941 18.6424C4.96094 18.7492 4.97275 18.859 5.01351 18.9593C5.05426 19.0597 5.12232 19.1467 5.20998 19.2103C5.29763 19.274 5.40137 19.3118 5.50943 19.3195C5.61749 19.3272 5.72555 19.3045 5.82135 19.2539L9.94216 17.0874L14.063 19.2539C14.1755 19.3138 14.3061 19.3338 14.4313 19.312C14.7471 19.2575 14.9594 18.9581 14.9049 18.6424L14.1174 14.0535L17.4507 10.8036C17.5414 10.7147 17.6013 10.5986 17.6195 10.4716C17.6685 10.154 17.4471 9.86006 17.1295 9.81288Z" fill="#FDC82A"/>
</svg>
