<svg width="133" height="31" viewBox="0 0 133 31" fill="none" xmlns="http://www.w3.org/2000/svg">
<g clip-path="url(#clip0_44_557)">
<path d="M19.7089 13.175L13.7581 12.3102L11.0979 6.9172C11.0253 6.76954 10.9057 6.65001 10.7581 6.57735C10.3878 6.39454 9.93778 6.54688 9.75262 6.9172L7.09246 12.3102L1.14168 13.175C0.97762 13.1984 0.82762 13.2758 0.712776 13.393C0.573936 13.5357 0.497429 13.7277 0.500066 13.9267C0.502703 14.1258 0.584268 14.3157 0.726838 14.4547L5.03231 18.6524L4.01512 24.5797C3.99127 24.7176 4.00652 24.8594 4.05916 24.989C4.1118 25.1187 4.19972 25.231 4.31294 25.3132C4.42616 25.3955 4.56015 25.4443 4.69973 25.4543C4.8393 25.4642 4.97888 25.4349 5.10262 25.3695L10.4253 22.5711L15.7479 25.3695C15.8932 25.4469 16.062 25.4727 16.2237 25.4445C16.6315 25.3742 16.9057 24.9875 16.8354 24.5797L15.8182 18.6524L20.1237 14.4547C20.2409 14.3399 20.3182 14.1899 20.3417 14.0258C20.405 13.6156 20.119 13.2359 19.7089 13.175Z" fill="#FDC82A"/>
<path d="M47.7089 13.175L41.7581 12.3102L39.0979 6.9172C39.0253 6.76954 38.9057 6.65001 38.7581 6.57735C38.3878 6.39454 37.9378 6.54688 37.7526 6.9172L35.0925 12.3102L29.1417 13.175C28.9776 13.1984 28.8276 13.2758 28.7128 13.393C28.5739 13.5357 28.4974 13.7277 28.5001 13.9267C28.5027 14.1258 28.5843 14.3157 28.7268 14.4547L33.0323 18.6524L32.0151 24.5797C31.9913 24.7176 32.0065 24.8594 32.0592 24.989C32.1118 25.1187 32.1997 25.231 32.3129 25.3132C32.4262 25.3955 32.5602 25.4443 32.6997 25.4543C32.8393 25.4642 32.9789 25.4349 33.1026 25.3695L38.4253 22.5711L43.7479 25.3695C43.8932 25.4469 44.062 25.4727 44.2237 25.4445C44.6315 25.3742 44.9057 24.9875 44.8354 24.5797L43.8182 18.6524L48.1237 14.4547C48.2409 14.3399 48.3182 14.1899 48.3417 14.0258C48.405 13.6156 48.119 13.2359 47.7089 13.175Z" fill="#FDC82A"/>
<path d="M75.7089 13.175L69.7581 12.3102L67.0979 6.9172C67.0253 6.76954 66.9057 6.65001 66.7581 6.57735C66.3878 6.39454 65.9378 6.54688 65.7526 6.9172L63.0925 12.3102L57.1417 13.175C56.9776 13.1984 56.8276 13.2758 56.7128 13.393C56.5739 13.5357 56.4974 13.7277 56.5001 13.9267C56.5027 14.1258 56.5843 14.3157 56.7268 14.4547L61.0323 18.6524L60.0151 24.5797C59.9913 24.7176 60.0065 24.8594 60.0592 24.989C60.1118 25.1187 60.1997 25.231 60.3129 25.3132C60.4262 25.3955 60.5602 25.4443 60.6997 25.4543C60.8393 25.4642 60.9789 25.4349 61.1026 25.3695L66.4253 22.5711L71.7479 25.3695C71.8932 25.4469 72.062 25.4727 72.2237 25.4445C72.6315 25.3742 72.9057 24.9875 72.8354 24.5797L71.8182 18.6524L76.1237 14.4547C76.2409 14.3399 76.3182 14.1899 76.3417 14.0258C76.405 13.6156 76.119 13.2359 75.7089 13.175Z" fill="#FDC82A"/>
<mask id="mask0_44_557" style="mask-type:alpha" maskUnits="userSpaceOnUse" x="84" y="6" width="21" height="20">
<path d="M103.709 13.175L97.7581 12.3102L95.0979 6.9172C95.0253 6.76954 94.9057 6.65001 94.7581 6.57735C94.3878 6.39454 93.9378 6.54688 93.7526 6.9172L91.0925 12.3102L85.1417 13.175C84.9776 13.1984 84.8276 13.2758 84.7128 13.393C84.5739 13.5357 84.4974 13.7277 84.5001 13.9267C84.5027 14.1258 84.5843 14.3157 84.7268 14.4547L89.0323 18.6524L88.0151 24.5797C87.9913 24.7176 88.0065 24.8594 88.0592 24.989C88.1118 25.1187 88.1997 25.231 88.3129 25.3132C88.4262 25.3955 88.5602 25.4443 88.6997 25.4543C88.8393 25.4642 88.9789 25.4349 89.1026 25.3695L94.4253 22.5711L99.7479 25.3695C99.8932 25.4469 100.062 25.4727 100.224 25.4445C100.632 25.3742 100.906 24.9875 100.835 24.5797L99.8182 18.6524L104.124 14.4547C104.241 14.3399 104.318 14.1899 104.342 14.0258C104.405 13.6156 104.119 13.2359 103.709 13.175Z" fill="#C4C4C4"/>
</mask>
<g mask="url(#mask0_44_557)">
<path d="M82.5 2.58331H94.5V32.2916H82.5V2.58331Z" fill="#FFE600"/>
<path d="M94.5 2.58331H106.5V32.2916H94.5V2.58331Z" fill="#E5E0EB"/>
</g>
<path d="M131.709 13.175L125.758 12.3102L123.098 6.9172C123.025 6.76954 122.906 6.65001 122.758 6.57735C122.388 6.39454 121.938 6.54688 121.753 6.9172L119.092 12.3102L113.142 13.175C112.978 13.1984 112.828 13.2758 112.713 13.393C112.574 13.5357 112.497 13.7277 112.5 13.9267C112.503 14.1258 112.584 14.3157 112.727 14.4547L117.032 18.6524L116.015 24.5797C115.991 24.7176 116.007 24.8594 116.059 24.989C116.112 25.1187 116.2 25.231 116.313 25.3132C116.426 25.3955 116.56 25.4443 116.7 25.4543C116.839 25.4642 116.979 25.4349 117.103 25.3695L122.425 22.5711L127.748 25.3695C127.893 25.4469 128.062 25.4727 128.224 25.4445C128.632 25.3742 128.906 24.9875 128.835 24.5797L127.818 18.6524L132.124 14.4547C132.241 14.3399 132.318 14.1899 132.342 14.0258C132.405 13.6156 132.119 13.2359 131.709 13.175Z" fill="#E5E0EB"/>
</g>
<defs>
<clipPath id="clip0_44_557">
<rect width="132" height="31" fill="white" transform="translate(0.5)"/>
</clipPath>
</defs>
</svg>
