<svg width="30" height="30" viewBox="0 0 30 30" fill="none" xmlns="http://www.w3.org/2000/svg">
<path d="M10 27.5C10.6904 27.5 11.25 26.9404 11.25 26.25C11.25 25.5596 10.6904 25 10 25C9.30966 25 8.75002 25.5596 8.75002 26.25C8.75002 26.9404 9.30966 27.5 10 27.5Z" stroke="#FDC82A" stroke-width="2" stroke-linecap="round" stroke-linejoin="round"/>
<path d="M23.7501 27.5C24.4405 27.5 25.0001 26.9404 25.0001 26.25C25.0001 25.5596 24.4405 25 23.7501 25C23.0598 25 22.5001 25.5596 22.5001 26.25C22.5001 26.9404 23.0598 27.5 23.7501 27.5Z" stroke="#FDC82A" stroke-width="2" stroke-linecap="round" stroke-linejoin="round"/>
<path d="M2.56245 2.5625H5.06245L8.38745 18.0875C8.50943 18.6561 8.82579 19.1643 9.28209 19.5248C9.73839 19.8853 10.3061 20.0754 10.8875 20.0625H23.1125C23.6814 20.0616 24.2331 19.8666 24.6762 19.5098C25.1194 19.153 25.4276 18.6557 25.55 18.1L27.6125 8.8125H6.39995" stroke="#FDC82A" stroke-width="2" stroke-linecap="round" stroke-linejoin="round"/>
</svg>
