<svg width="132" height="31" viewBox="0 0 132 31" fill="none" xmlns="http://www.w3.org/2000/svg">
<g clip-path="url(#clip0_40_151)">
<path d="M19.2089 13.175L13.2581 12.3102L10.5979 6.9172C10.5253 6.76954 10.4057 6.65001 10.2581 6.57735C9.88778 6.39454 9.43778 6.54688 9.25262 6.9172L6.59246 12.3102L0.641682 13.175C0.47762 13.1984 0.32762 13.2758 0.212776 13.393C0.0739361 13.5357 -0.00257088 13.7277 6.5967e-05 13.9267C0.00270281 14.1258 0.0842678 14.3157 0.226838 14.4547L4.53231 18.6524L3.51512 24.5797C3.49127 24.7176 3.50652 24.8594 3.55916 24.989C3.6118 25.1187 3.69972 25.231 3.81294 25.3132C3.92616 25.3955 4.06015 25.4443 4.19973 25.4543C4.3393 25.4642 4.47888 25.4349 4.60262 25.3695L9.92528 22.5711L15.2479 25.3695C15.3932 25.4469 15.562 25.4727 15.7237 25.4445C16.1315 25.3742 16.4057 24.9875 16.3354 24.5797L15.3182 18.6524L19.6237 14.4547C19.7409 14.3399 19.8182 14.1899 19.8417 14.0258C19.905 13.6156 19.619 13.2359 19.2089 13.175Z" fill="#FDC82A"/>
<path d="M47.2089 13.175L41.2581 12.3102L38.5979 6.9172C38.5253 6.76954 38.4057 6.65001 38.2581 6.57735C37.8878 6.39454 37.4378 6.54688 37.2526 6.9172L34.5925 12.3102L28.6417 13.175C28.4776 13.1984 28.3276 13.2758 28.2128 13.393C28.0739 13.5357 27.9974 13.7277 28.0001 13.9267C28.0027 14.1258 28.0843 14.3157 28.2268 14.4547L32.5323 18.6524L31.5151 24.5797C31.4913 24.7176 31.5065 24.8594 31.5592 24.989C31.6118 25.1187 31.6997 25.231 31.8129 25.3132C31.9262 25.3955 32.0602 25.4443 32.1997 25.4543C32.3393 25.4642 32.4789 25.4349 32.6026 25.3695L37.9253 22.5711L43.2479 25.3695C43.3932 25.4469 43.562 25.4727 43.7237 25.4445C44.1315 25.3742 44.4057 24.9875 44.3354 24.5797L43.3182 18.6524L47.6237 14.4547C47.7409 14.3399 47.8182 14.1899 47.8417 14.0258C47.905 13.6156 47.619 13.2359 47.2089 13.175Z" fill="#FDC82A"/>
<path d="M75.2089 13.175L69.2581 12.3102L66.5979 6.9172C66.5253 6.76954 66.4057 6.65001 66.2581 6.57735C65.8878 6.39454 65.4378 6.54688 65.2526 6.9172L62.5925 12.3102L56.6417 13.175C56.4776 13.1984 56.3276 13.2758 56.2128 13.393C56.0739 13.5357 55.9974 13.7277 56.0001 13.9267C56.0027 14.1258 56.0843 14.3157 56.2268 14.4547L60.5323 18.6524L59.5151 24.5797C59.4913 24.7176 59.5065 24.8594 59.5592 24.989C59.6118 25.1187 59.6997 25.231 59.8129 25.3132C59.9262 25.3955 60.0602 25.4443 60.1997 25.4543C60.3393 25.4642 60.4789 25.4349 60.6026 25.3695L65.9253 22.5711L71.2479 25.3695C71.3932 25.4469 71.562 25.4727 71.7237 25.4445C72.1315 25.3742 72.4057 24.9875 72.3354 24.5797L71.3182 18.6524L75.6237 14.4547C75.7409 14.3399 75.8182 14.1899 75.8417 14.0258C75.905 13.6156 75.619 13.2359 75.2089 13.175Z" fill="#FDC82A"/>
<path d="M103.209 13.175L97.2581 12.3102L94.5979 6.9172C94.5253 6.76954 94.4057 6.65001 94.2581 6.57735C93.8878 6.39454 93.4378 6.54688 93.2526 6.9172L90.5925 12.3102L84.6417 13.175C84.4776 13.1984 84.3276 13.2758 84.2128 13.393C84.0739 13.5357 83.9974 13.7277 84.0001 13.9267C84.0027 14.1258 84.0843 14.3157 84.2268 14.4547L88.5323 18.6524L87.5151 24.5797C87.4913 24.7176 87.5065 24.8594 87.5592 24.989C87.6118 25.1187 87.6997 25.231 87.8129 25.3132C87.9262 25.3955 88.0602 25.4443 88.1997 25.4543C88.3393 25.4642 88.4789 25.4349 88.6026 25.3695L93.9253 22.5711L99.2479 25.3695C99.3932 25.4469 99.562 25.4727 99.7237 25.4445C100.132 25.3742 100.406 24.9875 100.335 24.5797L99.3182 18.6524L103.624 14.4547C103.741 14.3399 103.818 14.1899 103.842 14.0258C103.905 13.6156 103.619 13.2359 103.209 13.175Z" fill="#FDC82A"/>
<path d="M131.209 13.175L125.258 12.3102L122.598 6.9172C122.525 6.76954 122.406 6.65001 122.258 6.57735C121.888 6.39454 121.438 6.54688 121.253 6.9172L118.592 12.3102L112.642 13.175C112.478 13.1984 112.328 13.2758 112.213 13.393C112.074 13.5357 111.997 13.7277 112 13.9267C112.003 14.1258 112.084 14.3157 112.227 14.4547L116.532 18.6524L115.515 24.5797C115.491 24.7176 115.507 24.8594 115.559 24.989C115.612 25.1187 115.7 25.231 115.813 25.3132C115.926 25.3955 116.06 25.4443 116.2 25.4543C116.339 25.4642 116.479 25.4349 116.603 25.3695L121.925 22.5711L127.248 25.3695C127.393 25.4469 127.562 25.4727 127.724 25.4445C128.132 25.3742 128.406 24.9875 128.335 24.5797L127.318 18.6524L131.624 14.4547C131.741 14.3399 131.818 14.1899 131.842 14.0258C131.905 13.6156 131.619 13.2359 131.209 13.175Z" fill="#E5E0EB"/>
</g>
<defs>
<clipPath id="clip0_40_151">
<rect width="132" height="31" fill="white"/>
</clipPath>
</defs>
</svg>
